<svg width="122" height="30" viewBox="0 0 122 30" fill="none" xmlns="http://www.w3.org/2000/svg">
<g clip-path="url(#clip0)">
<path d="M29.409 29.611C19.6019 29.611 9.80095 29.611 0 29.611C0 20.0673 0 10.5236 0 0.986084C9.80713 0.986084 19.6081 0.986084 29.409 0.986084C29.409 10.5298 29.409 20.0735 29.409 29.611ZM14.6767 3.36277C10.7403 3.36277 6.80999 3.36277 2.87354 3.36277C2.44715 3.36277 2.44715 3.36277 2.44715 3.77531C2.44715 11.4718 2.44715 19.1684 2.44715 26.8649C2.44715 27.2897 2.44715 27.2898 2.87354 27.2898C10.7526 27.2898 18.6317 27.2898 26.5108 27.2898C26.9681 27.2898 26.9681 27.2836 26.9681 26.8218C26.9681 19.1561 26.9681 11.4903 26.9681 3.82456C26.9681 3.36277 26.9681 3.36277 26.5108 3.36277C22.562 3.36277 18.6193 3.36277 14.6767 3.36277Z" fill="white"/>
<path d="M10.4131 9.30445C10.4131 9.45222 10.4131 9.58768 10.4131 9.71698C10.4131 13.7931 10.4069 17.863 10.4192 21.9391C10.4192 22.2469 10.3451 22.3455 10.0237 22.3393C9.22038 22.3147 8.41703 22.327 7.61367 22.3331C7.3912 22.3331 7.30469 22.2716 7.30469 22.0376C7.31087 17.5613 7.31087 13.0911 7.30469 8.61484C7.30469 8.37471 7.3912 8.31929 7.61367 8.32545C9.42431 8.33161 11.2411 8.33161 13.0518 8.32545C13.2804 8.32545 13.3855 8.41165 13.4596 8.63947C13.577 8.99043 18.3725 20.7569 18.5764 21.1571C18.632 21.2618 18.768 21.3295 18.8668 21.4157C18.9101 21.2926 18.9904 21.1694 18.9904 21.0463C18.9966 19.0637 18.9966 17.0872 18.9966 15.1046C18.9966 12.9618 19.0028 10.813 18.9904 8.67026C18.9904 8.39934 19.0646 8.31314 19.3365 8.31929C20.109 8.33776 20.8814 8.33161 21.6539 8.31929C21.8887 8.31314 21.9814 8.36855 21.9814 8.62715C21.9752 13.0911 21.9752 17.5551 21.9814 22.0191C21.9814 22.2716 21.8949 22.3331 21.6601 22.3331C19.8556 22.327 18.0573 22.327 16.2528 22.3331C16.0427 22.3331 15.95 22.2839 15.8697 22.0622C15.5854 21.2803 10.9507 9.84629 10.8456 9.51379C10.7715 9.29829 10.6602 9.23672 10.4131 9.30445Z" fill="white"/>
</g>
<path d="M43.9626 12.6887V18.4665H42.8896V15.9903H39.9016V18.4665H38.8286V12.6887H39.9016V15.0741H42.8896V12.6887H43.9626Z" fill="white"/>
<path d="M47.1103 14.0094C47.7596 14.0094 48.2548 14.1662 48.596 14.4798C48.9427 14.788 49.116 15.2557 49.116 15.883V18.4665H48.142V17.93C48.0155 18.1226 47.8339 18.2711 47.5973 18.3757C47.3662 18.4747 47.0855 18.5243 46.7554 18.5243C46.4252 18.5243 46.1363 18.4692 45.8887 18.3592C45.6411 18.2436 45.4485 18.0868 45.3109 17.8887C45.1789 17.6851 45.1128 17.4568 45.1128 17.2036C45.1128 16.8074 45.2587 16.491 45.5503 16.2544C45.8474 16.0123 46.3124 15.8913 46.9452 15.8913H48.0843V15.8252C48.0843 15.5171 47.9907 15.2805 47.8036 15.1154C47.622 14.9503 47.3497 14.8678 46.9865 14.8678C46.7389 14.8678 46.494 14.9063 46.2519 14.9833C46.0153 15.0604 45.8144 15.1677 45.6493 15.3052L45.2449 14.5541C45.476 14.378 45.7539 14.2432 46.0785 14.1497C46.4032 14.0561 46.7471 14.0094 47.1103 14.0094ZM46.97 17.7732C47.2286 17.7732 47.457 17.7154 47.6551 17.5998C47.8587 17.4788 48.0017 17.3082 48.0843 17.0881V16.5763H47.0195C46.4252 16.5763 46.1281 16.7717 46.1281 17.1624C46.1281 17.3495 46.2024 17.498 46.3509 17.6081C46.4995 17.7181 46.7059 17.7732 46.97 17.7732Z" fill="white"/>
<path d="M55.2295 17.5916V19.4817H54.2638V18.4665H50.3927V14.0589H51.4245V17.5916H53.5292V14.0589H54.561V17.5916H55.2295Z" fill="white"/>
<path d="M56.1479 14.0589H57.1797V16.9643L59.6146 14.0589H60.5555V18.4665H59.5238V15.5611L57.0971 18.4665H56.1479V14.0589Z" fill="white"/>
<path d="M63.9079 18.5243C63.4621 18.5243 63.0605 18.428 62.7028 18.2354C62.3451 18.0428 62.0645 17.7759 61.8609 17.4347C61.6628 17.0881 61.5637 16.6974 61.5637 16.2627C61.5637 15.828 61.6628 15.44 61.8609 15.0989C62.0645 14.7577 62.3451 14.4908 62.7028 14.2982C63.0605 14.1056 63.4621 14.0094 63.9079 14.0094C64.3591 14.0094 64.7635 14.1056 65.1212 14.2982C65.4789 14.4908 65.7567 14.7577 65.9548 15.0989C66.1584 15.44 66.2602 15.828 66.2602 16.2627C66.2602 16.6974 66.1584 17.0881 65.9548 17.4347C65.7567 17.7759 65.4789 18.0428 65.1212 18.2354C64.7635 18.428 64.3591 18.5243 63.9079 18.5243ZM63.9079 17.6411C64.2875 17.6411 64.6012 17.5145 64.8488 17.2614C65.0964 17.0083 65.2202 16.6754 65.2202 16.2627C65.2202 15.85 65.0964 15.5171 64.8488 15.264C64.6012 15.0108 64.2875 14.8843 63.9079 14.8843C63.5282 14.8843 63.2145 15.0108 62.9669 15.264C62.7248 15.5171 62.6037 15.85 62.6037 16.2627C62.6037 16.6754 62.7248 17.0083 62.9669 17.2614C63.2145 17.5145 63.5282 17.6411 63.9079 17.6411Z" fill="white"/>
<path d="M67.2795 14.0589H68.3112V15.85H70.5315V14.0589H71.5633V18.4665H70.5315V16.7249H68.3112V18.4665H67.2795V14.0589Z" fill="white"/>
<path d="M74.5885 14.0094C75.2379 14.0094 75.7331 14.1662 76.0742 14.4798C76.4209 14.788 76.5942 15.2557 76.5942 15.883V18.4665H75.6203V17.93C75.4937 18.1226 75.3121 18.2711 75.0755 18.3757C74.8444 18.4747 74.5638 18.5243 74.2336 18.5243C73.9035 18.5243 73.6146 18.4692 73.367 18.3592C73.1193 18.2436 72.9267 18.0868 72.7892 17.8887C72.6571 17.6851 72.5911 17.4568 72.5911 17.2036C72.5911 16.8074 72.7369 16.491 73.0285 16.2544C73.3257 16.0123 73.7907 15.8913 74.4235 15.8913H75.5625V15.8252C75.5625 15.5171 75.469 15.2805 75.2819 15.1154C75.1003 14.9503 74.8279 14.8678 74.4647 14.8678C74.2171 14.8678 73.9722 14.9063 73.7301 14.9833C73.4935 15.0604 73.2927 15.1677 73.1276 15.3052L72.7231 14.5541C72.9543 14.378 73.2321 14.2432 73.5568 14.1497C73.8814 14.0561 74.2254 14.0094 74.5885 14.0094ZM74.4482 17.7732C74.7068 17.7732 74.9352 17.7154 75.1333 17.5998C75.3369 17.4788 75.48 17.3082 75.5625 17.0881V16.5763H74.4977C73.9035 16.5763 73.6063 16.7717 73.6063 17.1624C73.6063 17.3495 73.6806 17.498 73.8292 17.6081C73.9777 17.7181 74.1841 17.7732 74.4482 17.7732Z" fill="white"/>
<path d="M81.8659 14.0589V18.4665H80.8341V14.9338H79.1833L79.1421 15.8087C79.1146 16.392 79.0595 16.8817 78.977 17.2779C78.9 17.6686 78.7651 17.9795 78.5726 18.2106C78.3855 18.4362 78.1268 18.549 77.7967 18.549C77.6426 18.549 77.4528 18.5188 77.2272 18.4582L77.2767 17.5916C77.3537 17.6081 77.4198 17.6163 77.4748 17.6163C77.6839 17.6163 77.8407 17.5338 77.9453 17.3687C78.0498 17.1981 78.1158 16.9973 78.1433 16.7662C78.1764 16.5296 78.2039 16.1939 78.2259 15.7592L78.3002 14.0589H81.8659Z" fill="white"/>
<path d="M85.4674 15.5116C86.0287 15.5116 86.4579 15.6381 86.7551 15.8913C87.0577 16.1444 87.209 16.502 87.209 16.9643C87.209 17.4485 87.0439 17.8227 86.7138 18.0868C86.3836 18.3509 85.9187 18.4802 85.3189 18.4747L83.2554 18.4665V14.0589H84.2871V15.5033L85.4674 15.5116ZM85.2281 17.7154C85.5307 17.7209 85.7618 17.6576 85.9214 17.5255C86.081 17.3935 86.1608 17.2009 86.1608 16.9478C86.1608 16.7001 86.0837 16.5186 85.9297 16.403C85.7756 16.2874 85.5417 16.2269 85.2281 16.2214L84.2871 16.2132V17.7071L85.2281 17.7154Z" fill="white"/>
<path d="M88.1159 14.0589H89.1476V15.85H91.3679V14.0589H92.3997V18.4665H91.3679V16.7249H89.1476V18.4665H88.1159V14.0589Z" fill="white"/>
<path d="M95.4249 14.0094C96.0742 14.0094 96.5695 14.1662 96.9106 14.4798C97.2573 14.788 97.4306 15.2557 97.4306 15.883V18.4665H96.4567V17.93C96.3301 18.1226 96.1485 18.2711 95.9119 18.3757C95.6808 18.4747 95.4002 18.5243 95.07 18.5243C94.7399 18.5243 94.451 18.4692 94.2033 18.3592C93.9557 18.2436 93.7631 18.0868 93.6256 17.8887C93.4935 17.6851 93.4275 17.4568 93.4275 17.2036C93.4275 16.8074 93.5733 16.491 93.8649 16.2544C94.1621 16.0123 94.627 15.8913 95.2598 15.8913H96.3989V15.8252C96.3989 15.5171 96.3054 15.2805 96.1183 15.1154C95.9367 14.9503 95.6643 14.8678 95.3011 14.8678C95.0535 14.8678 94.8086 14.9063 94.5665 14.9833C94.3299 15.0604 94.1291 15.1677 93.964 15.3052L93.5595 14.5541C93.7907 14.378 94.0685 14.2432 94.3932 14.1497C94.7178 14.0561 95.0618 14.0094 95.4249 14.0094ZM95.2846 17.7732C95.5432 17.7732 95.7716 17.7154 95.9697 17.5998C96.1733 17.4788 96.3164 17.3082 96.3989 17.0881V16.5763H95.3341C94.7399 16.5763 94.4427 16.7717 94.4427 17.1624C94.4427 17.3495 94.517 17.498 94.6656 17.6081C94.8141 17.7181 95.0205 17.7732 95.2846 17.7732Z" fill="white"/>
<path d="M102.43 14.0589V18.4665H101.505V17.1376H100.342L99.442 18.4665H98.3359L99.3759 16.9973C99.0568 16.8872 98.8119 16.7194 98.6413 16.4938C98.4763 16.2627 98.3937 15.9793 98.3937 15.6436C98.3937 15.1374 98.5725 14.7467 98.9302 14.4716C99.2879 14.1964 99.7804 14.0589 100.408 14.0589H102.43ZM100.441 14.9255C99.7749 14.9255 99.442 15.1759 99.442 15.6767C99.442 16.1719 99.7639 16.4195 100.408 16.4195H101.505V14.9255H100.441Z" fill="white"/>
<path d="M40.6605 26.3549H39.8599V28.1212H38.8281V23.7136H39.8599V25.4964H40.6853L41.9894 23.7136H43.0954L41.4941 25.8349L43.2027 28.1212H41.9894L40.6605 26.3549Z" fill="white"/>
<path d="M45.7498 28.179C45.3041 28.179 44.9024 28.0827 44.5447 27.8901C44.187 27.6975 43.9064 27.4306 43.7028 27.0895C43.5047 26.7428 43.4057 26.3521 43.4057 25.9174C43.4057 25.4827 43.5047 25.0947 43.7028 24.7536C43.9064 24.4124 44.187 24.1455 44.5447 23.953C44.9024 23.7604 45.3041 23.6641 45.7498 23.6641C46.201 23.6641 46.6054 23.7604 46.9631 23.953C47.3208 24.1455 47.5987 24.4124 47.7968 24.7536C48.0004 25.0947 48.1022 25.4827 48.1022 25.9174C48.1022 26.3521 48.0004 26.7428 47.7968 27.0895C47.5987 27.4306 47.3208 27.6975 46.9631 27.8901C46.6054 28.0827 46.201 28.179 45.7498 28.179ZM45.7498 27.2958C46.1295 27.2958 46.4431 27.1692 46.6907 26.9161C46.9383 26.663 47.0622 26.3301 47.0622 25.9174C47.0622 25.5047 46.9383 25.1718 46.6907 24.9187C46.4431 24.6655 46.1295 24.539 45.7498 24.539C45.3701 24.539 45.0564 24.6655 44.8088 24.9187C44.5667 25.1718 44.4456 25.5047 44.4456 25.9174C44.4456 26.3301 44.5667 26.663 44.8088 26.9161C45.0564 27.1692 45.3701 27.2958 45.7498 27.2958Z" fill="white"/>
<path d="M53.4547 28.1212V25.1993L51.969 27.659H51.5233L50.0623 25.191V28.1212H49.1214V23.7136H50.2027L51.7709 26.4704L53.4134 23.7136H54.3792L54.3874 28.1212H53.4547Z" fill="white"/>
<path d="M59.9973 23.7136V28.1212H58.9738V24.5885H56.803V28.1212H55.7713V23.7136H59.9973Z" fill="white"/>
<path d="M63.032 23.6641C63.6813 23.6641 64.1766 23.8209 64.5177 24.1345C64.8644 24.4427 65.0377 24.9104 65.0377 25.5377V28.1212H64.0637V27.5847C63.9372 27.7773 63.7556 27.9259 63.519 28.0304C63.2879 28.1294 63.0072 28.179 62.6771 28.179C62.3469 28.179 62.058 28.1239 61.8104 28.0139C61.5628 27.8983 61.3702 27.7415 61.2326 27.5434C61.1006 27.3398 61.0346 27.1115 61.0346 26.8583C61.0346 26.4622 61.1804 26.1458 61.472 25.9091C61.7691 25.667 62.2341 25.546 62.8669 25.546H64.006V25.4799C64.006 25.1718 63.9124 24.9352 63.7253 24.7701C63.5437 24.605 63.2714 24.5225 62.9082 24.5225C62.6606 24.5225 62.4157 24.561 62.1736 24.638C61.937 24.7151 61.7361 24.8224 61.5711 24.9599L61.1666 24.2088C61.3977 24.0327 61.6756 23.8979 62.0003 23.8044C62.3249 23.7108 62.6688 23.6641 63.032 23.6641ZM62.8917 27.4279C63.1503 27.4279 63.3787 27.3701 63.5768 27.2545C63.7804 27.1335 63.9234 26.9629 64.006 26.7428V26.231H62.9412C62.3469 26.231 62.0498 26.4264 62.0498 26.8171C62.0498 27.0042 62.1241 27.1527 62.2726 27.2628C62.4212 27.3728 62.6276 27.4279 62.8917 27.4279Z" fill="white"/>
<path d="M66.3144 23.7136H67.3462V25.5047H69.5665V23.7136H70.5982V28.1212H69.5665V26.3796H67.3462V28.1212H66.3144V23.7136Z" fill="white"/>
<path d="M71.981 23.7136H73.0127V26.619L75.4476 23.7136H76.3886V28.1212H75.3568V25.2158L72.9302 28.1212H71.981V23.7136Z" fill="white"/>
<path d="M81.499 23.7136V28.1212H80.5746V26.7923H79.4107L78.5111 28.1212H77.405L78.445 26.652C78.1259 26.5419 77.881 26.3741 77.7104 26.1485C77.5453 25.9174 77.4628 25.634 77.4628 25.2983C77.4628 24.7921 77.6416 24.4014 77.9993 24.1263C78.357 23.8512 78.8495 23.7136 79.4768 23.7136H81.499ZM79.5098 24.5803C78.844 24.5803 78.5111 24.8306 78.5111 25.3314C78.5111 25.8266 78.833 26.0742 79.4768 26.0742H80.5746V24.5803H79.5098Z" fill="white"/>
<path d="M90.2747 27.1103V28.0099H85.9414V22.2322H90.1592V23.1319H87.0144V24.6341H89.8043V25.5173H87.0144V27.1103H90.2747Z" fill="white"/>
<path d="M94.5496 25.7153C95.0944 25.8804 95.3668 26.2326 95.3668 26.7719C95.3668 27.168 95.2182 27.4734 94.9211 27.688C94.6239 27.9026 94.1837 28.0099 93.6004 28.0099H91.3554V23.6023H93.5096C94.0489 23.6023 94.4698 23.7014 94.7725 23.8995C95.0751 24.0976 95.2265 24.3782 95.2265 24.7414C95.2265 24.967 95.1659 25.1623 95.0449 25.3274C94.9293 25.4925 94.7642 25.6218 94.5496 25.7153ZM92.3376 25.443H93.4188C93.9526 25.443 94.2195 25.2586 94.2195 24.89C94.2195 24.5323 93.9526 24.3534 93.4188 24.3534H92.3376V25.443ZM93.5179 27.2588C94.0847 27.2588 94.368 27.0745 94.368 26.7058C94.368 26.5132 94.302 26.3702 94.17 26.2766C94.0379 26.1776 93.8315 26.128 93.5509 26.128H92.3376V27.2588H93.5179Z" fill="white"/>
<path d="M98.9089 23.5528C99.3381 23.5528 99.7205 23.6464 100.056 23.8334C100.397 24.0205 100.664 24.2847 100.857 24.6258C101.049 24.967 101.146 25.3604 101.146 25.8061C101.146 26.2519 101.049 26.648 100.857 26.9947C100.664 27.3359 100.397 27.6 100.056 27.7871C99.7205 27.9742 99.3381 28.0677 98.9089 28.0677C98.3146 28.0677 97.8441 27.8696 97.4975 27.4734V29.6112H96.4657V23.6023H97.4479V24.1801C97.6185 23.971 97.8276 23.8142 98.0752 23.7096C98.3284 23.6051 98.6062 23.5528 98.9089 23.5528ZM98.7933 27.1845C99.173 27.1845 99.4839 27.058 99.726 26.8049C99.9736 26.5517 100.097 26.2188 100.097 25.8061C100.097 25.3934 99.9736 25.0605 99.726 24.8074C99.4839 24.5543 99.173 24.4277 98.7933 24.4277C98.5457 24.4277 98.3228 24.4855 98.1248 24.6011C97.9267 24.7111 97.7698 24.8707 97.6543 25.0798C97.5387 25.2889 97.4809 25.531 97.4809 25.8061C97.4809 26.0813 97.5387 26.3234 97.6543 26.5325C97.7698 26.7416 97.9267 26.9039 98.1248 27.0195C98.3228 27.1295 98.5457 27.1845 98.7933 27.1845Z" fill="white"/>
<path d="M103.759 23.5528C104.408 23.5528 104.903 23.7096 105.244 24.0233C105.591 24.3314 105.764 24.7992 105.764 25.4265V28.0099H104.79V27.4734C104.664 27.666 104.482 27.8146 104.246 27.9192C104.015 28.0182 103.734 28.0677 103.404 28.0677C103.074 28.0677 102.785 28.0127 102.537 27.9026C102.289 27.7871 102.097 27.6303 101.959 27.4322C101.827 27.2286 101.761 27.0002 101.761 26.7471C101.761 26.3509 101.907 26.0345 102.199 25.7979C102.496 25.5558 102.961 25.4347 103.594 25.4347H104.733V25.3687C104.733 25.0605 104.639 24.8239 104.452 24.6588C104.27 24.4938 103.998 24.4112 103.635 24.4112C103.387 24.4112 103.142 24.4497 102.9 24.5268C102.664 24.6038 102.463 24.7111 102.298 24.8487L101.893 24.0976C102.124 23.9215 102.402 23.7867 102.727 23.6931C103.052 23.5996 103.395 23.5528 103.759 23.5528ZM103.618 27.3166C103.877 27.3166 104.105 27.2588 104.303 27.1433C104.507 27.0222 104.65 26.8516 104.733 26.6315V26.1198H103.668C103.074 26.1198 102.776 26.3151 102.776 26.7058C102.776 26.8929 102.851 27.0415 102.999 27.1515C103.148 27.2616 103.354 27.3166 103.618 27.3166Z" fill="white"/>
<path d="M109.618 25.7153C109.893 25.7924 110.105 25.9189 110.253 26.095C110.407 26.2656 110.484 26.472 110.484 26.7141C110.484 26.9837 110.394 27.2231 110.212 27.4322C110.03 27.6358 109.78 27.7953 109.461 27.9109C109.142 28.0265 108.779 28.0842 108.371 28.0842C108.03 28.0842 107.697 28.0457 107.373 27.9687C107.048 27.8861 106.754 27.7706 106.489 27.622L106.787 26.8544C107.001 26.9755 107.243 27.069 107.513 27.135C107.783 27.2011 108.052 27.2341 108.322 27.2341C108.668 27.2341 108.938 27.1818 109.131 27.0772C109.329 26.9672 109.428 26.8186 109.428 26.6315C109.428 26.461 109.351 26.3289 109.197 26.2353C109.048 26.1418 108.836 26.095 108.561 26.095H107.703V25.4017H108.479C108.737 25.4017 108.938 25.3577 109.081 25.2696C109.23 25.1816 109.304 25.0578 109.304 24.8982C109.304 24.7386 109.216 24.6121 109.04 24.5185C108.864 24.425 108.622 24.3782 108.314 24.3782C107.873 24.3782 107.408 24.4855 106.919 24.7001L106.655 23.9407C107.232 23.6711 107.816 23.5363 108.404 23.5363C108.779 23.5363 109.114 23.5886 109.411 23.6931C109.708 23.7922 109.94 23.9352 110.105 24.1223C110.275 24.3039 110.361 24.513 110.361 24.7496C110.361 24.9642 110.294 25.1568 110.162 25.3274C110.03 25.4925 109.849 25.6218 109.618 25.7153Z" fill="white"/>
<path d="M111.555 23.6023H112.587V26.5077L115.022 23.6023H115.963V28.0099H114.931V25.1046L112.504 28.0099H111.555V23.6023Z" fill="white"/>
<path d="M121.073 23.6023V28.0099H120.149V26.6811H118.985L118.085 28.0099H116.979L118.019 26.5407C117.7 26.4307 117.455 26.2629 117.284 26.0373C117.119 25.8061 117.037 25.5228 117.037 25.1871C117.037 24.6809 117.216 24.2902 117.573 24.015C117.931 23.7399 118.423 23.6023 119.051 23.6023H121.073ZM119.084 24.469C118.418 24.469 118.085 24.7194 118.085 25.2201C118.085 25.7153 118.407 25.963 119.051 25.963H120.149V24.469H119.084Z" fill="white"/>
<defs>
<clipPath id="clip0">
<rect width="29.409" height="28.6249" fill="white" transform="translate(0 0.986084)"/>
</clipPath>
</defs>
</svg>
