<svg width="162" height="158" viewBox="0 0 162 158" fill="none" xmlns="http://www.w3.org/2000/svg">
<path d="M162 157.681C107.977 157.681 53.9887 157.681 0 157.681C0 105.109 0 52.5377 0 0C54.0227 0 108.011 0 162 0C162 52.5716 162 105.143 162 157.681ZM80.8468 13.092C59.1628 13.092 37.5129 13.092 15.829 13.092C13.4801 13.092 13.4801 13.092 13.4801 15.3645C13.4801 57.7609 13.4801 100.157 13.4801 142.554C13.4801 144.894 13.4801 144.894 15.829 144.894C59.2309 144.894 102.633 144.894 146.035 144.894C148.554 144.894 148.554 144.86 148.554 142.316C148.554 100.09 148.554 57.8627 148.554 15.6358C148.554 13.092 148.554 13.092 146.035 13.092C124.283 13.092 102.565 13.092 80.8468 13.092Z" fill="white"/>
<path d="M58 46C57.1894 46.273 57.3598 47.3822 57.3598 48.0945C57.3598 70.5476 57.3258 92.9669 57.3939 115.42C57.3939 117.116 56.9854 117.659 55.2152 117.625C50.7899 117.489 46.3646 117.557 41.9393 117.591C40.7139 117.591 40.2373 117.252 40.2373 115.963C40.2713 91.3049 40.2713 66.6811 40.2373 42.0233C40.2373 40.7005 40.7139 40.3953 41.9393 40.4292C51.9133 40.4631 61.9213 40.4631 71.8952 40.4292C73.1547 40.4292 73.7334 40.904 74.1419 42.159C74.7887 44.0922 101.204 108.908 102.328 111.113C102.634 111.689 103.119 112.751 103.928 112.537C104.738 112.322 104.608 111.18 104.608 110.502C104.642 99.5807 104.642 88.6933 104.642 77.772C104.642 65.9688 104.676 54.1317 104.608 42.3286C104.608 40.8362 105.017 40.3614 106.515 40.3953C110.77 40.497 115.025 40.4631 119.28 40.3953C120.574 40.3614 121.084 40.6666 121.084 42.0911C121.05 66.6811 121.05 91.271 121.084 115.861C121.084 117.252 120.608 117.591 119.314 117.591C109.374 117.557 99.4682 117.557 89.5283 117.591C88.371 117.591 87.8603 117.319 87.4178 116.098C85.8519 111.791 60.3214 48.8067 59.7427 46.9752C59.3342 45.7881 58.7391 45.7511 58 46Z" fill="white"/>
</svg>
