<svg width="0" height="0" class="hidden">
  <symbol fill="none" stroke='currentColor' xmlns="http://www.w3.org/2000/svg" viewBox="0 0 11 17" id="arrow">
    <path d="M2 1.733L9 8.5l-7 6.767" stroke-width="2.5" stroke-linecap="round"></path>
  </symbol>
  <symbol fill="currentColor" xmlns="http://www.w3.org/2000/svg" viewBox="0 0 23.9 15.4" id="envelope">
    <path d="M23.9 14c-.1.4-.3.7-.6 1-.1.1-.2.2-.4.3s-.3.1-.5.1H1.3c-.1 0-.3 0-.4-.1-.1-.1-.2-.1-.3-.2-.4-.4-.6-.9-.6-1.5V1.9L12 11l12-9.2V14z"></path>
    <path d="M12 9l-2-1.5C7.2 5.3 4.4 3.2 1.6 1.1 1.3.8 1 .6.7.4.6.2.6.1.8.1c.2-.1.4-.1.6-.1h21.5c.1 0 .2.1.3.2-.1.1-.1.2-.2.2-1.6 1.3-3.3 2.5-4.9 3.8-2 1.5-4.1 3.1-6.1 4.6.1.1 0 .1 0 .2z"></path>
  </symbol>
  <symbol fill="currentColor" xmlns="http://www.w3.org/2000/svg" viewBox="0 0 20 20" id="phone">
    <path d="M3.6 0c.2.1.4.1.6.2.8.2 1.3.7 1.6 1.3.2.3.2.6.3 1 .2.7.4 1.4.6 2 .1.5.1 1-.1 1.6-.1.3-.3.6-.6.8l-.8.8s-.1.1 0 .1c.2.6.4 1.2.6 1.7.8 1.7 2.1 3.1 3.6 4.1.8.5 1.7.9 2.6 1.2.2.1.3 0 .4-.1.3-.3.5-.6.8-.8.5-.5 1.1-.6 1.8-.6.3 0 .6.1.8.2.7.2 1.4.4 2.2.6.8.2 1.4.8 1.7 1.6.1.2.1.5.2.7v.5c-.1.5-.3 1-.6 1.4L18 19.6c-.3.4-.8.5-1.3.5h-1.4c-1.1-.1-2.2-.3-3.2-.6-.9-.3-1.9-.6-2.8-1-1.9-.9-3.6-2.2-5-3.7-1.2-1.7-2.3-3.5-3.1-5.4C.8 8.5.6 7.6.4 6.6.2 5.7.1 4.8 0 3.8V3s0-.1.1-.2c.1-.4.2-.7.5-1 .4-.3.8-.7 1.1-1.1.3-.3.6-.5 1-.6.2 0 .4-.1.6-.1h.3z"></path>
  </symbol>
  <symbol fill="currentColor" xmlns="http://www.w3.org/2000/svg" viewBox="0 0 19 29" id="point">
    <path fill-rule="evenodd" clip-rule="evenodd" d="M8.4 27.034C4.974 22.485 0 15.888 0 10.5 0 5 4 .5 9.5.5c5 0 9.5 4 9.5 10.5 0 5.295-5.565 12.444-9.1 16.985l-.4.515c-.34-.46-.71-.95-1.1-1.466zM9.5 14a3.5 3.5 0 100-7 3.5 3.5 0 000 7z"></path>
  </symbol>
</svg>