<svg width="0" height="0" class="hidden">
  <symbol fill="none" stroke='currentColor' xmlns="http://www.w3.org/2000/svg" viewBox="0 0 11 17" id="arrow">
    <path d="M2 1.733L9 8.5l-7 6.767" stroke-width="2.5" stroke-linecap="round"></path>
  </symbol>
  <symbol fill="currentColor" xmlns="http://www.w3.org/2000/svg" viewBox="0 0 23.9 15.4" id="envelope">
    <path d="M23.9 14c-.1.4-.3.7-.6 1-.1.1-.2.2-.4.3s-.3.1-.5.1H1.3c-.1 0-.3 0-.4-.1-.1-.1-.2-.1-.3-.2-.4-.4-.6-.9-.6-1.5V1.9L12 11l12-9.2V14z"></path>
    <path d="M12 9l-2-1.5C7.2 5.3 4.4 3.2 1.6 1.1 1.3.8 1 .6.7.4.6.2.6.1.8.1c.2-.1.4-.1.6-.1h21.5c.1 0 .2.1.3.2-.1.1-.1.2-.2.2-1.6 1.3-3.3 2.5-4.9 3.8-2 1.5-4.1 3.1-6.1 4.6.1.1 0 .1 0 .2z"></path>
  </symbol>
  <symbol fill="currentColor" xmlns="http://www.w3.org/2000/svg" viewBox="0 0 20 20" id="phone">
    <path d="M3.6 0c.2.1.4.1.6.2.8.2 1.3.7 1.6 1.3.2.3.2.6.3 1 .2.7.4 1.4.6 2 .1.5.1 1-.1 1.6-.1.3-.3.6-.6.8l-.8.8s-.1.1 0 .1c.2.6.4 1.2.6 1.7.8 1.7 2.1 3.1 3.6 4.1.8.5 1.7.9 2.6 1.2.2.1.3 0 .4-.1.3-.3.5-.6.8-.8.5-.5 1.1-.6 1.8-.6.3 0 .6.1.8.2.7.2 1.4.4 2.2.6.8.2 1.4.8 1.7 1.6.1.2.1.5.2.7v.5c-.1.5-.3 1-.6 1.4L18 19.6c-.3.4-.8.5-1.3.5h-1.4c-1.1-.1-2.2-.3-3.2-.6-.9-.3-1.9-.6-2.8-1-1.9-.9-3.6-2.2-5-3.7-1.2-1.7-2.3-3.5-3.1-5.4C.8 8.5.6 7.6.4 6.6.2 5.7.1 4.8 0 3.8V3s0-.1.1-.2c.1-.4.2-.7.5-1 .4-.3.8-.7 1.1-1.1.3-.3.6-.5 1-.6.2 0 .4-.1.6-.1h.3z"></path>
  </symbol>
  <symbol fill="currentColor" xmlns="http://www.w3.org/2000/svg" viewBox="0 0 19 29" id="point">
    <path fill-rule="evenodd" clip-rule="evenodd" d="M8.4 27.034C4.974 22.485 0 15.888 0 10.5 0 5 4 .5 9.5.5c5 0 9.5 4 9.5 10.5 0 5.295-5.565 12.444-9.1 16.985l-.4.515c-.34-.46-.71-.95-1.1-1.466zM9.5 14a3.5 3.5 0 100-7 3.5 3.5 0 000 7z"></path>
  </symbol>
  <symbol fill="currentColor" xmlns="http://www.w3.org/2000/svg" viewBox="0 0 31 24" id="quotes">
    <path d="M9.8 11.13c1.167.513 2.077 1.283 2.73 2.31.653 1.027.98 2.24.98 3.64 0 2.007-.63 3.64-1.89 4.9-1.26 1.213-2.87 1.82-4.83 1.82s-3.593-.63-4.9-1.89C.63 20.65 0 19.04 0 17.08c0-.933.117-1.867.35-2.8.233-.933.747-2.333 1.54-4.2L5.95 0h6.93L9.8 11.13zm16.52 0c1.167.513 2.077 1.283 2.73 2.31.653 1.027.98 2.24.98 3.64 0 2.007-.63 3.64-1.89 4.9-1.26 1.213-2.87 1.82-4.83 1.82s-3.593-.63-4.9-1.89c-1.26-1.26-1.89-2.87-1.89-4.83 0-.933.117-1.867.35-2.8.233-.933.747-2.333 1.54-4.2L22.47 0h6.93l-3.08 11.13z"></path>
  </symbol>
  <svg fill="currentColor" viewBox="0 0 264 257" xmlns="http://www.w3.org/2000/svg" id="logo">
    <path fill-rule="evenodd" clip-rule="evenodd" d="M0 257H263.993V0H0V257ZM25.7947 21.3383H131.747H237.977C240.022 21.3383 241.048 21.3383 241.563 21.8514C242.082 22.368 242.082 23.4045 242.082 25.4844V231.958C242.082 236.104 242.082 236.159 237.977 236.159H25.7947C23.8787 236.159 22.9218 236.159 22.4439 235.681C21.9671 235.203 21.9671 234.25 21.9671 232.345V25.0421C21.9671 23.2105 21.9671 22.2847 22.43 21.8167C22.9031 21.3383 23.8599 21.3383 25.7947 21.3383ZM93.4732 78.3877V74.6839C95.6921 74.0758 96.6906 74.6286 97.3563 76.5634C97.8206 78.0333 108.144 103.67 118.809 130.156C129.803 157.458 141.16 185.662 142.455 189.225C143.176 191.216 144.009 191.658 145.895 191.658C162.093 191.603 178.235 191.603 194.433 191.658C196.541 191.658 197.318 191.105 197.318 188.839C197.262 148.76 197.262 108.682 197.318 68.603C197.318 66.2812 196.485 65.7837 194.378 65.839C187.443 65.9495 180.509 66.0048 173.575 65.839C171.135 65.7837 170.469 66.5576 170.469 68.99C170.552 83.42 170.542 97.881 170.531 112.327C170.528 117.139 170.524 121.951 170.524 126.758C170.524 144.559 170.524 162.304 170.469 180.104C170.469 180.861 170.131 181.617 169.794 182.374C169.638 182.723 169.482 183.072 169.359 183.421C169.073 183.171 168.752 182.939 168.432 182.707C167.759 182.22 167.09 181.736 166.752 181.099C164.922 177.506 121.875 71.8646 120.821 68.7136C120.155 66.6682 119.212 65.8942 117.16 65.8942C100.906 65.9495 84.5976 65.9495 68.3442 65.8942C66.3472 65.839 65.5706 66.3365 65.5706 68.4924C65.626 108.682 65.626 148.815 65.5706 189.004C65.5706 191.105 66.3472 191.658 68.3442 191.658C69.3755 191.65 70.4069 191.641 71.4382 191.632C77.6183 191.578 83.7983 191.524 89.9784 191.713C92.863 191.768 93.5287 190.884 93.5287 188.12C93.4455 160.675 93.4559 133.261 93.4662 105.831C93.4697 96.6856 93.4732 87.5384 93.4732 78.3877Z"></path>
  </svg>
  <symbol fill="currentColor" xmlns="http://www.w3.org/2000/svg" viewBox="0 0 283 86" id="signature">
    <path d="M124.48 54.63c-.079-.556 0-.954.397-1.271.159-.08.239-.239.318-.398.239-1.43 1.192-2.462 1.986-3.574.159-.239.318-.556.477-.795l.953-2.145c.159-.397.397-.794.636-1.191.079-.16.159-.239.238-.318.636-.397.874-.953 1.112-1.668.08-.239.318-.477.477-.715.318-.556.635-1.033.953-1.59.318-.476.715-.953 1.033-1.43.715-1.111 1.509-2.224 2.224-3.336.08-.08.08-.238.159-.397-.238 0-.476-.08-.635 0-.874.318-1.828.636-2.701 1.033-1.589.635-3.099 1.27-4.687 1.906-1.033.398-1.828 1.113-2.701 1.669-.636.397-1.272.953-2.225.556-.318.317-.556.556-1.033.635-.317 0-.635.239-.873.477-.715.397-1.351.794-1.987 1.271-1.588 1.192-3.495 1.986-4.845 3.495-.159.16-.398.239-.636.477-.556.477-1.112.794-1.509 1.43-.318.477-.874.794-1.271 1.192-.159.159-.239.318-.398.397-.556.635-1.112 1.35-1.668 2.065-.079.08-.238.239-.159.318 0 .397-.238.556-.477.874-.556.953-1.032 1.907-1.509 2.86-.318.715-.556 1.43-.794 2.224-.08.16-.159.239-.08.398.08.715-.238 1.35-.476 2.065-.08.238-.08.477-.08.715 0 1.192-.079 2.463 0 3.654 0 .636.238 1.271.397 1.907.159.477.239.874.08 1.35-.636-.317-.795-.873-.874-1.43-.08-.556-.08-1.032-.556-1.509-.08-.159-.08-.397-.159-.556a235.96 235.96 0 01-.238-2.463c-.08-.715.238-1.35.317-2.065 0-.239.159-.477.08-.636-.08-.874.159-1.668.556-2.383.079-.238.079-.477.159-.715.556-1.35 1.112-2.621 1.668-3.972.159-.318.238-.636.159-.953-.318.238-.715.397-.953.715-.954 1.032-2.304 1.509-3.257 2.462-1.033.318-1.589 1.271-2.543 1.669-.794.317-1.35.953-2.065 1.43-.238.158-.556.317-.794.476-.16.08-.318.16-.398.238-.238.398-.556.477-.953.636-.318.08-.556.397-.794.556-1.033.636-2.066 1.35-3.099 1.907-.874.476-1.747.953-2.7 1.43-1.272.635-2.463 1.27-3.734 1.906-.716.318-1.351.636-2.066.874-1.033.318-1.51-.08-1.43-1.27.715-.319 1.271-.875 1.668-1.59 0-.08.08-.08.08-.159.715-.873 1.43-1.827 2.224-2.7.159-.239.477-.318.318-.636 0-.08.08-.238.159-.318.635-.556 1.033-1.35 1.589-1.986.397-.556.715-1.192 1.35-1.589.08-.08.16-.238.239-.318l1.906-3.098c.397-.556.874-1.033 1.192-1.589.794-1.35 1.986-2.462 2.94-3.733.079-.08 0-.318.079-.557-.239.08-.398.08-.557.08-1.35.715-2.78 1.033-4.13 1.589-.954.318-1.907.635-2.702 1.112-.873.477-1.747.715-2.621 1.112-1.43.556-2.86 1.112-4.29 1.589-.159.08-.397.159-.556.238-1.271.636-2.622 1.271-3.972 1.748-1.35.477-2.622 1.192-3.972 1.748-.715.317-1.35.715-2.145.874-.477.079-.874.397-1.35.556-1.113.476-2.305 1.032-3.417 1.51-.397.158-.715.317-1.112.476-.953.476-1.827.953-2.78 1.35-1.59.636-3.258 1.192-4.846 1.827-.398.16-.715.477-1.033.636-.636.318-1.271.556-1.907.874l-1.43.715c-.794.397-1.51.794-2.303 1.112-1.43.636-2.86 1.192-4.211 1.986-.715.397-1.35.636-2.065.874-.477.159-.874.477-1.272.715-.317.238-.635.397-1.032.318-.08 0-.239 0-.318.08-.636.635-1.43 1.032-2.304 1.27a1.73 1.73 0 00-.635.397c-1.272.795-2.622 1.35-4.052 1.907-.794.318-1.51.794-2.224 1.112-.636.318-1.271.556-1.907.874l-1.43.715c-.794.397-1.589.874-2.463 1.271l-2.145.953c-.635.318-1.27.715-1.906 1.033-.715.397-1.51.795-2.304 1.112-1.51.636-3.019 1.192-4.528 1.828-.715.317-1.43.715-2.145 1.032-.953.397-1.986.715-3.019 1.033-.318.08-.635.318-1.033.397-1.747.636-3.575 1.033-5.481.795-.556-.08-1.112-.318-1.589-.636-.477-.318-.874-.794-1.271-1.271-.794-.874-.953-1.827-.636-3.019.239-1.112.557-2.145 1.033-3.178.16-.476.477-.873.636-1.35.317-.715.635-1.51 1.032-2.224.398-.636.874-1.271 1.272-1.828a5.594 5.594 0 001.191-1.827 4.51 4.51 0 01.953-1.43c.318-.397.874-.556.874-1.27 0 0 0-.08.08-.08.874-.795 1.35-1.907 1.986-2.86.476-.636.953-1.192 1.51-1.748.476-.556 1.032-1.033 1.509-1.589a6.063 6.063 0 001.032-1.35 7.224 7.224 0 011.43-1.668c.636-.636 1.51-1.113 2.066-1.828.397-.556.953-.873 1.35-1.35.398-.556.874-1.033 1.271-1.589.08-.08.16-.238.239-.318.635-.318.953-.953 1.51-1.35.873-.556 1.43-1.35 2.144-1.986.477-.477 1.112-.795 1.51-1.51.317-.476.953-.635 1.35-1.191a5.286 5.286 0 011.986-1.748c1.192-.715 2.066-1.748 3.178-2.542l1.668-1.192c.477-.318.874-.715 1.35-1.033a48.492 48.492 0 012.543-1.747l2.86-2.145.238-.239c1.748-.794 3.257-2.065 5.005-3.018.794-.477 1.43-1.113 2.304-1.43.873-.318 1.588-1.033 2.383-1.43.635-.318 1.191-.874 1.986-.874.08 0 .238-.08.318-.159.397-.397.953-.556 1.43-.874.556-.318 1.032-.715 1.668-.635.08 0 .238-.08.318-.16.238-.714.953-.714 1.509-1.032 1.271-.636 2.542-1.192 3.813-1.748 1.271-.556 2.622-.953 3.813-1.668.16-.08.398-.08.557-.159 1.43-.318 2.7-1.192 4.13-1.51 1.033-.238 1.987-.635 2.94-.953.477-.159.953-.476 1.43-.635.953-.318 1.827-.636 2.78-.953 1.271-.398 2.463-.795 3.734-1.033 1.589-.318 3.019-.953 4.528-1.271 1.828-.397 3.655-.954 5.482-1.35 1.112-.24 2.224-.557 3.257-.795.953-.239 1.907-.318 2.78-.556l3.099-.715c.397-.08.794-.318 1.191-.239 1.271.08 2.463-.476 3.655-.556 1.112-.08 2.145-.238 3.257-.397h.159c1.191-.08 2.303-.08 3.495-.238 1.033-.08 2.066-.239 3.098-.318.318 0 .636-.08.954-.08 1.43.08 2.86-.079 4.289.16.795.158 1.51-.239 1.907-.954.318-.556.636-1.033.953-1.589.636-.953 1.192-1.986 1.907-2.86 1.509-1.827 2.939-3.733 4.925-5.004.874-.557 1.907-.715 2.94-.557.318.08.397.16.794.874-.238.08-.476.16-.715.16-1.112 0-2.065.317-2.78 1.19-.318.398-.795.636-1.192 1.034-.715.715-1.509 1.35-1.986 2.224-.794 1.271-1.668 2.383-2.463 3.575-.397.556-.874 1.112-1.35 1.747.874.239 1.668.557 2.463.636 1.112.159 2.144.318 3.257.477 1.827.318 3.416 1.112 4.925 2.065 1.033.636 1.986 1.51 2.781 2.542.635.874 1.032 1.748 1.429 2.622.159.318.08.715.08 1.112-.08.953-.397 1.827-.874 2.622-.397.794-.953 1.589-1.43 2.383-.159.318-.397.556-.635.794l-2.384 2.622-.715.715c-.397.477-.794.953-1.271 1.43-.238.238-.556.477-.794.794-.08.16-.238.318-.238.477.079.159.317.318.397.318.874-.08 1.271.397 1.43 1.191-.08.239-.239.556-.398.954.318 0 .636.08.795 0 .715-.16 1.35-.477 2.065-.636.636-.159 1.271-.476 1.907-.476 1.112-.08 1.748-.715 2.304-1.51.476-.635.953-1.43 1.43-2.065.238-.318.159-.795.635-.954.08 0 0-.476-.079-.715-.08-.08-.397-.159-.477-.08-.635.24-1.191.557-1.827.875l-1.668.953c-.397.238-.556.715-.477 1.112.08.398-.079.636-.079.954 0 .238-.08.635-.398.556-.317-.08-.715-.318-.794-.556-.318-.954-.318-1.986.477-2.78.476-.557.953-.954 1.668-1.193 1.112-.397 2.145-.873 3.257-1.27a12.618 12.618 0 011.589-.557c.159-.08.318-.159.397-.238.397-.636.953-1.033 1.43-1.668 1.112-1.43 1.907-3.02 3.098-4.37.477-.556.874-1.27 1.271-1.906.477-.715.954-1.35 1.43-2.066.874-1.35 1.669-2.621 2.543-3.972a85.256 85.256 0 012.303-3.416c.239-.397.398-.874.636-1.35.397-.874.794-1.748 1.271-2.543.159-.317.953-.556 1.35-.317.398.159.477.635.239 1.112-.477.953-.874 1.986-1.351 2.86-.397.715-.794 1.51-1.271 2.224-.794 1.192-1.43 2.542-2.304 3.734-.794 1.033-1.509 2.224-2.224 3.336-.159.239-.238.477-.477.636-.715.715-1.112 1.589-1.668 2.383-.238.398-.556.715-.794 1.112l-1.43 1.907c-.239.318-.477.636-.795.953.159.477.556.398.874.318.874-.238 1.748-.476 2.622-.635 1.509-.239 2.939-.715 4.448-.556.398 0 .874-.08 1.272-.08.317 0 .635.08.873.159.08.08.239.238.239.397 0 .08-.239.318-.318.318-1.827 0-3.416.715-5.164 1.033-.238.08-.556 0-.874 0-.556 0-.953.08-1.509.317-.477.239-.953.239-1.43.398a7.85 7.85 0 00-1.271.397c-.159.08-.397.238-.556.238-.874-.08-1.271.556-1.748 1.112-1.033 1.271-1.986 2.622-2.939 3.973-.08.079-.159.317-.08.397.08.08.318.159.398.159 1.35-.16 2.701-.16 4.051-.08 1.351.16 2.383.715 3.178 1.827l.715.954c.715 1.27.556 2.7.317 4.051-.317 1.748-1.271 3.178-2.303 4.528-1.271 1.748-2.86 3.258-4.529 4.608-.635.556-1.271 1.192-1.906 1.748a20.386 20.386 0 01-2.066 1.589c-1.032.715-1.986 1.509-3.098 2.065-1.43.794-2.86 1.668-4.528 2.066-.874.159-1.748.238-2.622.556-.397.159-.794-.16-1.032-.477-.239-.397-.08-.715.238-.953.397-.318.874-.715 1.35-1.033.239-.159.398-.397.636-.477.238-.158.397-.238.636-.317.238-.08.556.079.556.397 0 .159-.159.397-.239.556-.079.08-.238.159-.476.318.317.08.476.238.556.238.715-.238 1.509-.397 2.224-.715 1.192-.556 2.304-1.271 3.416-1.986.556-.397 1.033-1.033 1.748-1.271.318-.159.635-.556.953-.874.953-.794 1.986-1.51 3.019-2.224.477-.398.874-.954 1.271-1.51.238-.318.556-.635.794-.953.557-.636 1.113-1.35 1.669-1.986.238-.318.556-.636.715-1.033.397-.794.794-1.589 1.032-2.463.239-.635.239-1.35.318-1.986.159-1.747-1.509-3.495-3.336-3.575-1.271-.079-2.543 0-3.814.08-.873 0-1.668.238-2.065 1.192-.238.397-.636.715-.953 1.191-.398.556-.795 1.192-1.271 1.748-.398.556-.795 1.033-1.113 1.589-.238.317-.556.635-.715 1.032-.397.716-.794 1.351-1.35 1.987-.318.317-.397.873-.636 1.27-.874 1.351-1.827 2.622-2.701 3.973a123.78 123.78 0 01-2.701 4.21c.318.238-.159.715-.556 1.192zm-4.925-40.992c-.397-.397-.795-.239-1.351-.239-.556.08-1.191.08-1.747.08-.715 0-1.51-.238-2.145-.08-.795.16-1.51.16-2.304.08h-.477c-1.271.159-2.542.238-3.813.397-.636.08-1.351.238-1.986.238-1.351 0-2.622.16-3.972.398-.397.079-.715.159-1.112.238-1.192.238-2.463.318-3.655.635-1.668.398-3.495.398-5.084 1.192-.159.08-.397.08-.556.08-1.033-.16-1.827.556-2.78.476-.636.556-1.43.397-2.145.636-1.272.318-2.622.556-3.973.953-1.509.477-3.018 1.033-4.528 1.51-1.192.397-2.383.714-3.575 1.032-.238.08-.556.08-.794.239-1.033.397-2.066.873-3.098 1.27-1.192.477-2.384.874-3.575 1.272-.318.08-.636.238-.954.397-.476.159-.953.397-1.35.556-.318.159-.715.238-1.033.397-1.27.556-2.542 1.192-3.813 1.748-.794.318-1.668.556-2.383 1.033-1.112.715-2.304 1.191-3.575 1.747-.16.08-.318.239-.477.318-.318.238-.556.477-.874.636-1.032.556-2.145 1.112-3.177 1.668-1.192.556-2.304 1.35-3.416 2.065-.556.318-1.033.874-1.59 1.113-.555.317-1.19.556-1.668.953-.397.318-.873.477-1.191.715a14.897 14.897 0 01-1.907 1.43c-.874.556-1.668 1.191-2.542 1.827-.794.556-1.668 1.033-2.383 1.668-.874.636-1.668 1.43-2.542 2.066-1.51 1.032-2.86 2.304-4.21 3.495-1.43 1.192-2.781 2.383-4.052 3.654-2.145 2.066-4.21 4.052-6.197 6.276-.317.318-.635.557-.953.874-.953 1.113-1.907 2.145-2.86 3.257-.556.715-1.192 1.351-1.748 2.066a56.138 56.138 0 00-2.542 3.495c-.794 1.033-1.51 2.066-2.304 3.178-.397.556-.715 1.192-1.112 1.748-.635.953-1.43 1.748-1.668 2.86 0 .08-.159.159-.159.238-.238.318-.477.556-.636.953-.556 1.271-1.35 2.384-1.35 3.893-.477.635-.318 1.43-.159 2.145.159.636.477 1.271 1.112 1.43a14.62 14.62 0 002.622.238c.318 0 .635-.159.874-.159 1.668 0 3.098-.794 4.607-1.27.715-.24 1.43-.716 2.225-.875 1.032-.238 1.986-.874 3.018-1.191 1.351-.397 2.543-1.112 3.814-1.668.635-.318 1.191-.636 1.827-.874.635-.318 1.271-.636 1.907-.874.556-.239 1.191-.318 1.668-.795.08-.08.238-.08.317-.159 1.033-.476 1.987-.873 3.02-1.35.953-.477 1.985-1.033 2.939-1.51.238-.158.476-.238.715-.397.715-.397 1.43-.715 2.145-1.112 1.191-.635 2.542-.874 3.654-1.748 0 0 .08 0 .08-.079 1.43-.636 2.86-1.35 4.29-1.986.635-.318 1.27-.636 1.985-.953.715-.318 1.51-.477 2.145-.874 1.192-.636 2.304-1.35 3.575-1.748.08 0 .159 0 .238-.08.556-.635 1.43-.714 2.066-1.032.238-.159.556-.159.794-.239.636-.317 1.192-.635 1.828-.873.635-.239 1.032-.874 1.827-.795.08 0 .238-.159.318-.238.158-.08.317-.238.476-.318.715 0 1.271-.477 1.907-.794 1.112-.477 2.224-1.033 3.416-1.51.874-.397 1.827-.794 2.7-1.191.319-.16.557-.477.795-.556.636-.239 1.35-.477 1.986-.715.477-.16.953-.398 1.51-.556.794-.318 1.509-.636 2.303-.954.715-.318 1.351-.635 2.066-.874.715-.317 1.43-.556 2.145-.873.715-.318 1.51-.477 2.224-.874a9.756 9.756 0 012.066-.954c1.032-.397 2.145-.794 3.177-1.191.954-.318 1.828-.715 2.78-1.033.875-.318 1.749-.556 2.623-.953 1.27-.636 2.621-1.033 3.892-1.59.556-.237 1.271-.396 1.827-.714.556-.318 1.271-.397 1.748-1.033.397-.635 1.033-1.112 1.35-1.827.08-.238.318-.556.557-.715.397-.238.794-.477.635-1.033 0-.08.08-.238.08-.318.635-.476 1.032-1.112 1.43-1.747.715-1.033 1.35-2.145 2.303-2.94.08 0 .08-.08.08-.158.397-.954 1.191-1.669 1.748-2.543.317-.476.715-.794 1.032-1.27.398-.557.715-1.192 1.112-1.749.159-.238.477-.317.557-.556l1.668-2.383c.635-.874 1.192-1.668 1.827-2.462.477-.636 1.112-1.113 1.351-1.987.238-.794.873-1.43 1.35-2.065l2.145-2.86c1.112-1.43 2.065-2.86 3.019-4.37zM99.218 43.826c.953.08 1.509-.398 2.145-.636 1.112-.476 2.303-.794 3.416-1.191.873-.318 1.827-.557 2.701-.874 1.906-.795 3.892-1.51 5.799-2.225.715-.238 1.35-.635 2.065-.794 1.033-.318 2.066-.477 3.019-1.033.08-.08.238-.08.397-.08.715-.238 1.351-.476 2.066-.714.953-.318 1.986-.715 2.939-.954 1.112-.317 2.066-.715 2.86-1.589 1.271-1.43 2.701-2.7 4.052-4.051.159-.159.238-.238.317-.397.795-1.033 1.589-2.145 2.622-3.019.159-.159.318-.397.477-.556.238-.477.397-.953.635-1.35.556-.954.795-1.987.954-3.02.079-.238.079-.635-.08-.794-.477-.874-.874-1.827-1.589-2.462-.874-.874-1.906-1.51-2.939-2.146-.953-.635-1.986-.873-3.098-1.112-.398-.08-.795-.397-1.192-.397-.556 0-1.033-.159-1.509-.397-.239-.08-.477-.08-.715-.08h-.795l-2.145-.238c-.635.874-1.191 1.668-1.747 2.383-1.033 1.43-1.828 3.099-3.258 4.29-.079.636-.556.874-.873 1.271-.715 1.033-1.351 2.066-2.066 3.099-.477.715-1.033 1.35-1.589 1.986-.635.794-1.191 1.588-1.747 2.383a99.908 99.908 0 01-2.145 3.019c-.795 1.032-1.669 2.065-2.463 3.098-.953 1.192-1.907 2.463-2.86 3.654-.397.556-.953 1.033-1.271 1.59-.556 1.032-1.271 1.906-2.066 2.78-.079.079-.159.317-.317.556zm-14.38 20.099c.636-.239 1.192-.318 1.669-.636 1.112-.794 2.463-1.033 3.495-1.907.08-.08.239-.08.398-.158.238-.16.476-.239.715-.398.317-.159.556-.397.794-.556.635-.397 1.35-.715 1.986-1.192 1.35-.873 2.701-1.827 4.131-2.7 1.748-1.113 3.495-2.145 5.005-3.496.715-.715 1.827-.874 2.383-1.748h.08c1.271-.635 2.383-1.35 3.336-2.383.08-.08.159-.238.318-.238 1.033-.318 1.509-1.35 2.463-1.907.794-.477 1.43-1.192 2.224-1.827.238-.238.636-.318.953-.556.556-.477.954-1.112 1.51-1.43.874-.477 1.589-1.192 2.383-1.827.556-.398 1.033-.874 1.509-1.271.239-.239.477-.477.795-.636.556-.397 1.033-.953 1.589-1.668-.477.08-.795.08-1.033.159-.238.08-.556.238-.795.318-.953.317-1.906.476-2.78.953-.636.318-1.271.477-1.986.715-.397.159-.795.238-1.192.397-.635.238-1.271.556-1.906.794-.398.16-.874.398-1.351.477-1.191.397-2.463.636-3.654 1.112-1.51.556-2.94 1.192-4.369 1.748-.398.159-.795.238-1.192.397-.238.08-.397.16-.636.239-.476.158-.953.397-1.35.556-.795.317-1.589.556-2.304.953-.874.477-1.271 1.35-1.827 2.065-1.033 1.35-1.827 2.86-2.86 4.131-1.192 1.43-2.224 3.02-3.337 4.529-.317.397-.556.794-.794 1.191-.794 1.112-1.668 2.145-2.383 3.257-.795.636-1.35 1.59-1.986 2.543zm36.941-24.15v.238c.239 0 .556 0 .795-.08.397-.159.715-.397 1.112-.556.953-.556 1.986-.874 2.78-1.668.477-.398.954-.715 1.43-1.113.318-.317.556-.714.954-1.112-.318 0-.477-.08-.636-.08-1.033.319-2.224.557-2.939 1.51l-.715.715a52.952 52.952 0 00-2.781 2.145zm-.794.635l.318.159.238-.239c-.08-.08-.159-.159-.159-.08-.159-.079-.238 0-.397.16zm76.661-31.38c0-.238 0-.477.08-.794-.239.08-.556 0-.715.159a9.574 9.574 0 00-1.271 1.27c-.556.636-1.192 1.192-1.748 1.828-.636.715-1.351 1.35-1.907 2.145-.476.715-1.271 1.112-1.509 1.906 0 .08-.079.08-.079.16-1.43 1.27-2.463 2.939-3.734 4.369-.874 1.032-1.748 1.986-2.622 3.018-.476.636-.953 1.271-1.43 1.828l-.953 1.191a30.767 30.767 0 01-1.509 1.827c-.398.556-.874 1.033-1.272 1.59a9587.823 9587.823 0 01-3.098 3.812c-.953 1.113-1.827 2.225-2.78 3.337-.239.238-.397.556-.477 1.033.159-.08.397-.08.477-.16 1.032-.794 2.065-1.509 3.098-2.383.318-.238.636-.635.953-.953.318-.318.556-.715.874-.953.397-.397.477-.318.953.159-.079.08-.079.238-.158.238-.715.795-1.51 1.51-2.304 2.304-.159.159-.318.238-.477.397-.874.715-1.827 1.43-2.701 2.145-.318.238-.556.636-1.033.636h-.079c-.715.873-1.827 1.43-2.622 2.303-.953 1.033-1.589 2.304-2.621 3.416.397.715.476 1.43.238 2.304-.159.477.159.636.715.477.715-.318 1.43-.715 2.224-1.112-.238-.954.318-1.35 1.033-1.748.556-.318 1.033-.556 1.668-.874.239.159.477.397.636.636.318.397.238.794-.159 1.112l-.635.635c.873.318 1.43-.238 2.065-.476.636-.239 1.351-.398 1.907-.556.079-.16.079-.239.079-.318-.238-.874-.159-1.033.636-1.43.556-.238 1.112-.636 1.668-.794a5.125 5.125 0 011.589-.239c.397 0 .715.556.635.953a4.606 4.606 0 01-.317.557c.873-.08 1.588-.239 2.144-.954.477-.556 1.113-.556 1.748-.556.397 0 .477.318.477.953.874.16 1.748-.714 2.78-.079-.397.715-1.112.953-1.668 1.112-.874.318-1.748.795-2.78.795-.239 0-.477 0-.715-.08-.557-.159-1.033-.159-1.51.08-.635.317-1.35.317-1.986.476-.635.16-1.271.16-1.906.239-.08 0-.239.079-.318.159-.636.556-1.43.794-2.304.953-.397.08-.795.238-1.192.397-.715.318-1.43.397-2.224.08-.159-.08-.477 0-.636.079-.556.238-1.112.476-1.588.794-.636.398-1.351.715-2.145.795-.398.08-.715.238-.874.556-.477.715-.874 1.35-1.271 2.065-.08.08-.08.16-.08.239.159.794-.397 1.27-.715 1.906-.238.477-.397.954-.635 1.35-.239.477-.556.954-.795 1.351-.159.239-.238.477-.397.636-.556 1.033-1.192 1.986-1.748 3.019-.556.953-1.271 1.747-1.906 2.7-.159.318-.636.398-1.033.636-.794-.794-.715-1.589-.556-2.462.079-.477.397-.954.477-1.43.158-.557.317-1.113.476-1.748 0-.08 0-.239.08-.318.953-.953 1.032-2.304 1.589-3.416.238-.477.714-.953.794-1.51.318-1.509 1.509-2.462 2.065-3.813.08-.158.239-.397.398-.476.317-.239.397-.556.556-.874.476-.874.715-1.986 1.668-2.622.318-.238.636-1.032.556-1.589-.159.08-.397.08-.556.16-.477.238-.953.555-1.43.873l-3.098 1.669-3.098 1.668c-1.192.635-2.463 1.112-3.734 1.827-1.033.556-2.145.715-3.178 1.112-.238.08-.397.318-.635.397a3.735 3.735 0 01-.795.398c-.794.158-1.033-.08-.874-.874 0-.08 0-.239.08-.318.715-.556.635-1.51 1.112-2.225.715-1.112 1.509-2.144 2.622-2.939.238-.159.556-.318.794-.477.238-.238.397-.635.794-.476.318.159.636.397 1.033.635-.397.795-.794 1.43-1.112 2.066-.397.635-1.112 1.033-1.351 1.748.636-.239 1.351.08 1.907-.477.238-.238.556-.397.874-.397.556-.08.874-.397 1.35-.636.556-.397 1.192-.635 1.748-.953.636-.318 1.192-.874 1.986-.874.238 0 .477-.397.795-.477.556-.317 1.112-.556 1.668-.873 1.112-.556 2.145-1.192 3.257-1.828.079-.08.159-.08.238-.158 1.51-.08 1.986-1.43 2.86-2.304.477-.477.874-1.112 1.351-1.59.238-.237.397-.555.635-.794.318-.635.636-1.27 1.271-1.668.318-.159.556-.556.715-.874.556-.874 1.43-1.51 1.748-2.542.079-.159.238-.238.397-.318l2.384-3.098c.476-.635.953-1.192 1.429-1.748.477-.556.874-1.191 1.272-1.747.079-.08.079-.16.158-.16.636-.158.795-.794 1.113-1.19.476-.557.953-1.113 1.43-1.749.635-.714 1.191-1.509 1.827-2.224.476-.556.874-1.271 1.35-1.827.795-.715 1.192-1.827 2.225-2.383.079-.08.159-.239.238-.318.238-.397.397-.715.794-.953.477-.318.715-.874 1.033-1.35l.953-1.193c.239-.238.398-.556.636-.794.477-.477 1.033-.874 1.509-1.35.08-.08.318-.16.318-.239.238-.953 1.112-1.27 1.668-1.906.477-.636 1.351-1.033 2.145-1.272.556-.158 1.033.16 1.113.636.079.397.079.874 0 1.271 0 .795-.159.874-1.113.715zm-38.211 50.128c.079 0 .159.08.238.08.397-.239.874-.557.953-1.113.08-.238.159-.476.318-.715.874-.874 1.192-2.145 1.748-3.257.238-.397.477-.874.715-1.35.397-.874.715-1.748 1.033-2.622.079-.238.317-.397.317-.636 0-.158-.079-.317-.159-.476-.158.08-.317.08-.397.238-.397.715-.794 1.51-1.191 2.224a37.509 37.509 0 00-1.351 2.463c-.238.477-.477.874-.635 1.35-.08.16-.08.319-.159.477-.477.874-.874 1.828-1.351 2.701-.079.239-.079.398-.079.636zm36.066-14.379l.398.397c.158.16.238.318.397.477-.159.397-.239.794-.397 1.191.556.398 1.032.08 1.429 0 .954-.158 1.907-.397 2.86-.635.318-.08.715-.08 1.033-.238.953-.477 1.986-.477 2.939-.636.795-.159 1.589-.397 2.384-.636.159-.079.318-.158.476-.158 1.589 0 3.019-.715 4.608-.954 1.271-.159 2.463-.476 3.734-.794.159-.08.397-.159.556-.159 1.907-.556 3.813-.794 5.72-.874.238 0 .476-.08.635-.159.874-.238 1.748.08 2.622.239.477.079.794.873.715 1.35-.08 1.668-1.271 2.542-2.304 3.575-.238.238-.556.397-.874.636-.397.317-.397.635.159.794.238.08.477.08.715.08.794 0 1.668.079 2.463 0 .953-.08 1.906-.239 2.86-.398 1.271-.238 2.542-.397 3.813-.715 1.43-.397 2.86-.397 4.29-.794 1.668-.477 3.416-.715 5.163-1.033 1.43-.238 2.86-.397 4.211-.636.635-.079 1.271-.317 1.906-.476 1.033-.239 2.145-.397 3.258-.636 1.032-.238 2.065-.397 3.098-.635.477-.08.874-.16 1.35-.238 1.748-.318 3.416-.636 5.164-.874.874-.16 1.827-.16 2.701-.239.636-.08 1.351-.159 1.986-.238.636-.08 1.351-.159 1.986-.238 2.304-.239 4.608-.16 6.832-.239.795 0 1.51.08 2.225.08.715-.08 1.509-.08 2.224 0 .794.08 1.589.238 2.383.476.318.08.556.318.874.477-.159.477-.397.556-.715.556-.715-.08-1.43-.159-2.224-.238-.874-.08-1.669-.16-2.542-.239-1.192 0-2.384.16-3.575 0-1.271-.158-2.463.08-3.734.08-.794 0-1.589.238-2.383.318-.795.08-1.589.159-2.463.318-1.351.158-2.701.238-3.972.556-.556.158-1.192.158-1.827.238-1.748.318-3.496.635-5.243.794-1.907.239-3.734.874-5.641 1.033-1.509.159-2.86.636-4.29.874-1.827.238-3.654.715-5.481 1.112-.636.159-1.271.08-1.907.238-1.271.239-2.542.556-3.813.795-.715.159-1.43.159-2.145.318-1.033.159-2.065.397-3.178.635-.397.08-.794.159-1.191.159-.795.08-1.589.159-2.384.159-.873 0-1.747-.08-2.542-.556-.953-.556-.874-1.748.08-2.383.476-.318.953-.795 1.35-1.272l1.43-1.668c.239-.238.239-.556-.079-.715-.318-.159-.715-.317-1.033-.317-1.033.079-2.145.238-3.178.397-.476.08-.874.159-1.35.238-1.51.318-3.019.556-4.449.874l-2.86.715c-.397.08-.794.238-1.271.238-.953 0-1.827.556-2.701.636-1.271.08-2.383.556-3.575.715-1.191.159-2.383.635-3.575.953-.556.159-1.112.238-1.668.318-.953.159-1.907.397-2.86.635-.635.16-1.271.239-1.827.16-.874-.08-1.351.396-1.827.952-.795.954-1.51 1.986-2.225 2.94-.238.318-.397.635-.635 1.033-.318.476-.556.953-.874 1.35-.318.397-1.033.318-1.271-.159-.318-.715-.238-1.51.159-2.065 1.033-1.35 1.986-2.78 3.257-3.972.953-.874 1.827-1.748 2.622-2.78l.714-.716c.318-.238.557-.397.477-.794 0-.08 0-.239.08-.318.397-.477.715-.874 1.112-1.35.556-.557 1.033-1.113 1.589-1.748.238-.239.476-.477.476-.874 0-.159.159-.318.239-.397.715-.874 1.509-1.748 2.224-2.701 1.35-1.669 2.622-3.416 3.972-5.164l1.43-1.668c.477-.556.874-1.113 1.271-1.59.238-.317.397-.635.636-.873.317-.477.476-.953 1.032-1.192.239-.08.318-.397.477-.635.159-.239.238-.477.397-.715.239-.318.556-.556.715-.954.08-.317.556-.476.795-.715.238-.238.397-.476.635-.794.08-.159.159-.318.318-.397.318-.397.556-.874.874-1.271l.476-.477c.159-.159.318-.397.477-.556.556-.556.874-1.271 1.43-1.827 1.033-1.112 2.066-2.225 2.939-3.416.557-.715 1.351-1.271 2.066-1.986.556-.556 1.033-1.112 1.509-1.589.477-.477 1.113-.556 1.669-.159.317.238.397.477.158.794 0 0 0 .08-.079.08-.953.874-1.827 1.748-2.701 2.622l-1.907 2.145c-.079.079-.079.238-.158.317-.874.954-1.828 1.827-2.702 2.78-.476.557-.873 1.113-1.35 1.669-.636.874-1.351 1.668-1.986 2.542-.794 1.033-1.668 2.145-2.463 3.178l-1.906 2.145c-.239.238-.318.476-.556.794-.398.556-.795 1.112-1.272 1.668-.873 1.113-1.827 2.145-2.701 3.258-.476.556-1.032 1.191-1.509 1.747-.556.715-1.033 1.35-1.589 2.066-.238.318-.397.635-.715.794-.476.318-.794.874-1.112 1.35-.636.875-1.192 1.748-2.065 2.463 0 .318-.08.874-.398 1.351z"></path>
    <path d="M117.251 56.298c.556 0 .794.159.953.636.159.397.08.715-.317.794-.318.08-.557.238-.715.556-.239.397-.557.397-.954.159-.556-.318-.635-.397-.476-.953.079-.715.635-1.192 1.509-1.192z"></path>
  </symbol>
</svg>