<svg width="0" height="0" class="hidden">
  <symbol fill="none" stroke='currentColor' xmlns="http://www.w3.org/2000/svg" viewBox="0 0 11 17" id="arrow">
    <path d="M2 1.733L9 8.5l-7 6.767" stroke-width="2.5" stroke-linecap="round"></path>
  </symbol>
  <symbol fill="currentColor" xmlns="http://www.w3.org/2000/svg" viewBox="0 0 23.9 15.4" id="envelope">
    <path d="M23.9 14c-.1.4-.3.7-.6 1-.1.1-.2.2-.4.3s-.3.1-.5.1H1.3c-.1 0-.3 0-.4-.1-.1-.1-.2-.1-.3-.2-.4-.4-.6-.9-.6-1.5V1.9L12 11l12-9.2V14z"></path>
    <path d="M12 9l-2-1.5C7.2 5.3 4.4 3.2 1.6 1.1 1.3.8 1 .6.7.4.6.2.6.1.8.1c.2-.1.4-.1.6-.1h21.5c.1 0 .2.1.3.2-.1.1-.1.2-.2.2-1.6 1.3-3.3 2.5-4.9 3.8-2 1.5-4.1 3.1-6.1 4.6.1.1 0 .1 0 .2z"></path>
  </symbol>
  <symbol fill="currentColor" xmlns="http://www.w3.org/2000/svg" viewBox="0 0 20 20" id="phone">
    <path d="M3.6 0c.2.1.4.1.6.2.8.2 1.3.7 1.6 1.3.2.3.2.6.3 1 .2.7.4 1.4.6 2 .1.5.1 1-.1 1.6-.1.3-.3.6-.6.8l-.8.8s-.1.1 0 .1c.2.6.4 1.2.6 1.7.8 1.7 2.1 3.1 3.6 4.1.8.5 1.7.9 2.6 1.2.2.1.3 0 .4-.1.3-.3.5-.6.8-.8.5-.5 1.1-.6 1.8-.6.3 0 .6.1.8.2.7.2 1.4.4 2.2.6.8.2 1.4.8 1.7 1.6.1.2.1.5.2.7v.5c-.1.5-.3 1-.6 1.4L18 19.6c-.3.4-.8.5-1.3.5h-1.4c-1.1-.1-2.2-.3-3.2-.6-.9-.3-1.9-.6-2.8-1-1.9-.9-3.6-2.2-5-3.7-1.2-1.7-2.3-3.5-3.1-5.4C.8 8.5.6 7.6.4 6.6.2 5.7.1 4.8 0 3.8V3s0-.1.1-.2c.1-.4.2-.7.5-1 .4-.3.8-.7 1.1-1.1.3-.3.6-.5 1-.6.2 0 .4-.1.6-.1h.3z"></path>
  </symbol>
  <symbol fill="currentColor" xmlns="http://www.w3.org/2000/svg" viewBox="0 0 19 29" id="point">
    <path fill-rule="evenodd" clip-rule="evenodd" d="M8.4 27.034C4.974 22.485 0 15.888 0 10.5 0 5 4 .5 9.5.5c5 0 9.5 4 9.5 10.5 0 5.295-5.565 12.444-9.1 16.985l-.4.515c-.34-.46-.71-.95-1.1-1.466zM9.5 14a3.5 3.5 0 100-7 3.5 3.5 0 000 7z"></path>
  </symbol>
  <symbol fill="currentColor" xmlns="http://www.w3.org/2000/svg" viewBox="0 0 31 24" id="quotes">
    <path d="M9.8 11.13c1.167.513 2.077 1.283 2.73 2.31.653 1.027.98 2.24.98 3.64 0 2.007-.63 3.64-1.89 4.9-1.26 1.213-2.87 1.82-4.83 1.82s-3.593-.63-4.9-1.89C.63 20.65 0 19.04 0 17.08c0-.933.117-1.867.35-2.8.233-.933.747-2.333 1.54-4.2L5.95 0h6.93L9.8 11.13zm16.52 0c1.167.513 2.077 1.283 2.73 2.31.653 1.027.98 2.24.98 3.64 0 2.007-.63 3.64-1.89 4.9-1.26 1.213-2.87 1.82-4.83 1.82s-3.593-.63-4.9-1.89c-1.26-1.26-1.89-2.87-1.89-4.83 0-.933.117-1.867.35-2.8.233-.933.747-2.333 1.54-4.2L22.47 0h6.93l-3.08 11.13z"></path>
  </symbol>
  <svg fill="currentColor" viewBox="0 0 264 257" xmlns="http://www.w3.org/2000/svg" id="logo">
    <path fill-rule="evenodd" clip-rule="evenodd" d="M0 257H263.993V0H0V257ZM25.7947 21.3383H131.747H237.977C240.022 21.3383 241.048 21.3383 241.563 21.8514C242.082 22.368 242.082 23.4045 242.082 25.4844V231.958C242.082 236.104 242.082 236.159 237.977 236.159H25.7947C23.8787 236.159 22.9218 236.159 22.4439 235.681C21.9671 235.203 21.9671 234.25 21.9671 232.345V25.0421C21.9671 23.2105 21.9671 22.2847 22.43 21.8167C22.9031 21.3383 23.8599 21.3383 25.7947 21.3383ZM93.4732 78.3877V74.6839C95.6921 74.0758 96.6906 74.6286 97.3563 76.5634C97.8206 78.0333 108.144 103.67 118.809 130.156C129.803 157.458 141.16 185.662 142.455 189.225C143.176 191.216 144.009 191.658 145.895 191.658C162.093 191.603 178.235 191.603 194.433 191.658C196.541 191.658 197.318 191.105 197.318 188.839C197.262 148.76 197.262 108.682 197.318 68.603C197.318 66.2812 196.485 65.7837 194.378 65.839C187.443 65.9495 180.509 66.0048 173.575 65.839C171.135 65.7837 170.469 66.5576 170.469 68.99C170.552 83.42 170.542 97.881 170.531 112.327C170.528 117.139 170.524 121.951 170.524 126.758C170.524 144.559 170.524 162.304 170.469 180.104C170.469 180.861 170.131 181.617 169.794 182.374C169.638 182.723 169.482 183.072 169.359 183.421C169.073 183.171 168.752 182.939 168.432 182.707C167.759 182.22 167.09 181.736 166.752 181.099C164.922 177.506 121.875 71.8646 120.821 68.7136C120.155 66.6682 119.212 65.8942 117.16 65.8942C100.906 65.9495 84.5976 65.9495 68.3442 65.8942C66.3472 65.839 65.5706 66.3365 65.5706 68.4924C65.626 108.682 65.626 148.815 65.5706 189.004C65.5706 191.105 66.3472 191.658 68.3442 191.658C69.3755 191.65 70.4069 191.641 71.4382 191.632C77.6183 191.578 83.7983 191.524 89.9784 191.713C92.863 191.768 93.5287 190.884 93.5287 188.12C93.4455 160.675 93.4559 133.261 93.4662 105.831C93.4697 96.6856 93.4732 87.5384 93.4732 78.3877Z"></path>
  </svg>
</svg>