<svg width="0" height="0" class="hidden">
  <symbol fill="currentColor" xmlns="http://www.w3.org/2000/svg" viewBox="0 0 10 22" id="facebook">
    <path d="M3.443 1.092C4.232.305 5.349.037 6.407.006 7.524-.004 8.642.001 9.758.001c.005 1.24.005 2.475 0 3.716H7.593c-.456-.031-.926.334-1.01.813-.01.828-.004 1.657-.004 2.485 1.058.005 2.116 0 3.174.005a48.308 48.308 0 01-.386 3.577c-.936.01-1.872 0-2.808.005-.01 3.535.005 7.065-.005 10.6-1.392.006-2.778-.004-4.17.006-.024-3.535 0-7.07-.014-10.606-.676-.005-1.357.005-2.034-.005.005-1.189 0-2.377 0-3.561.677-.01 1.358 0 2.034-.005.02-1.153-.02-2.31.02-3.464.073-.92.401-1.842 1.053-2.475z"></path>
  </symbol>
  <symbol fill="currentColor" xmlns="http://www.w3.org/2000/svg" viewBox="0 0 21 21" id="instagram">
    <path d="M10.201 5.003c-2.882 0-5.228 2.312-5.228 5.153 0 2.841 2.345 5.153 5.228 5.153 2.883 0 5.229-2.312 5.229-5.153 0-2.841-2.346-5.153-5.229-5.153zm0 8.409c-1.833 0-3.323-1.46-3.323-3.256 0-1.795 1.49-3.255 3.323-3.255s3.324 1.46 3.324 3.255-1.49 3.256-3.324 3.256z"></path>
    <path d="M14.432.178H5.933C2.755.178.168 2.754.168 5.921v8.544c0 3.166 2.586 5.743 5.765 5.743h8.5c3.178 0 5.765-2.577 5.765-5.743V5.92c0-3.166-2.587-5.743-5.766-5.743zm3.858 14.287c0 2.118-1.73 3.842-3.857 3.842h-8.5c-2.126 0-3.857-1.724-3.857-3.842V5.92c0-2.119 1.73-3.842 3.857-3.842h8.5c2.126 0 3.857 1.723 3.857 3.842v8.544z"></path>
    <path d="M15.52 6.018c.679 0 1.23-.548 1.23-1.225s-.551-1.225-1.23-1.225c-.68 0-1.23.548-1.23 1.225s.55 1.225 1.23 1.225z"></path>
  </symbol>
  <symbol fill="currentColor" xmlns="http://www.w3.org/2000/svg" viewBox="0 0 29 30" id="odnoklassniki">
    <path d="M14.66 11.936c1.352 0 2.448-1.134 2.448-2.533S16.012 6.87 14.659 6.87c-1.352 0-2.448 1.134-2.448 2.533s1.096 2.533 2.448 2.533z"></path>
    <path d="M14.5 0C6.492 0 0 6.716 0 15c0 8.284 6.492 15 14.5 15S29 23.284 29 15c0-8.284-6.492-15-14.5-15zm.16 4.254c2.749 0 4.977 2.305 4.977 5.149 0 2.843-2.228 5.148-4.977 5.148s-4.977-2.305-4.977-5.148c0-2.844 2.228-5.149 4.977-5.149zm4.424 13.265c-1.058.703-2.508.969-3.455 1.07l.792.82 2.933 3.033a1.21 1.21 0 010 1.67l-.134.139a1.115 1.115 0 01-1.614 0l-2.933-3.034-2.933 3.034a1.115 1.115 0 01-1.614 0l-.134-.14a1.21 1.21 0 010-1.669l2.932-3.034.79-.817c-.946-.099-2.412-.364-3.479-1.072-1.249-.83-1.802-1.322-1.312-2.34.28-.584 1.059-1.07 2.093-.226 1.398 1.139 3.644 1.139 3.644 1.139s2.245 0 3.643-1.14c1.035-.843 1.813-.357 2.094.227.49 1.019-.064 1.51-1.313 2.34z"></path>
  </symbol>
  <symbol fill="currentColor" xmlns="http://www.w3.org/2000/svg" viewBox="0 0 30 30" id="vkontakte">
    <path d="M15 0C6.716 0 0 6.716 0 15c0 8.284 6.716 15 15 15 8.284 0 15-6.716 15-15 0-8.284-6.716-15-15-15zm6.505 16.983c.118.146.399.43.843.854h.01l.01.01.01.01.022.02c.978.91 1.64 1.677 1.988 2.301.02.034.043.078.067.13.024.052.049.144.073.276a.813.813 0 01-.005.354c-.028.103-.114.2-.26.286-.146.087-.35.13-.614.13l-2.665.042c-.166.035-.36.017-.583-.052a2.548 2.548 0 01-.54-.229l-.21-.125a4.869 4.869 0 01-.728-.666 18.433 18.433 0 01-.713-.807c-.197-.24-.41-.44-.635-.604-.226-.163-.421-.216-.588-.16a.839.839 0 00-.083.036 1.333 1.333 0 00-.4.458 2.139 2.139 0 00-.178.54c-.052.24-.075.51-.068.808 0 .103-.012.2-.036.286a.7.7 0 01-.078.192l-.042.052c-.125.132-.309.208-.551.23h-1.197c-.493.027-1-.03-1.52-.172a5.818 5.818 0 01-1.368-.552c-.393-.225-.75-.454-1.072-.687a6.206 6.206 0 01-.734-.598l-.26-.25a6.592 6.592 0 01-.286-.313c-.122-.138-.37-.454-.744-.947a25.888 25.888 0 01-1.104-1.571 32.009 32.009 0 01-1.275-2.196 34.308 34.308 0 01-1.358-2.831.827.827 0 01-.063-.28c0-.077.01-.133.032-.168l.041-.062c.104-.132.302-.198.594-.198l2.851-.02a1.08 1.08 0 01.406.155l.052.032a.689.689 0 01.25.333c.139.347.299.706.479 1.077s.323.654.427.848l.166.302c.201.416.396.777.583 1.083.188.305.355.543.505.713.149.17.293.303.432.4.139.098.257.146.354.146.097 0 .19-.017.28-.052a.184.184 0 00.053-.052 2.18 2.18 0 00.125-.23 1.69 1.69 0 00.14-.488c.032-.201.065-.482.1-.843a8.109 8.109 0 000-1.3 4.882 4.882 0 00-.094-.76 2.016 2.016 0 00-.146-.48l-.063-.124c-.173-.236-.468-.385-.884-.448-.09-.013-.073-.097.052-.25a1.44 1.44 0 01.395-.312c.368-.18 1.197-.263 2.488-.25.569.007 1.037.052 1.405.136.139.034.255.081.348.14a.56.56 0 01.214.25c.048.107.085.218.11.333a2.4 2.4 0 01.036.473c0 .201-.004.393-.01.573-.008.18-.016.425-.026.733-.01.31-.016.596-.016.86 0 .076-.004.221-.01.436a4.513 4.513 0 00.03.921c.021.163.061.299.12.406a.686.686 0 00.234.255l.177.042c.063.014.153-.024.27-.115a3.8 3.8 0 00.396-.359c.146-.148.326-.38.541-.697.215-.315.451-.688.708-1.119a16.96 16.96 0 001.114-2.342.704.704 0 01.104-.182.46.46 0 01.114-.11l.042-.03c.013-.008.03-.016.052-.027a.85.85 0 01.344-.036l2.997-.021c.27-.034.492-.026.666.026.173.052.28.11.323.172l.062.104c.16.444-.36 1.463-1.56 3.06-.168.222-.393.517-.677.884-.542.695-.854 1.149-.936 1.365-.119.284-.07.565.145.842z"></path>
  </symbol>
  <symbol fill="currentColor" xmlns="http://www.w3.org/2000/svg" viewBox="0 0 21 16" id="youtube">
    <path d="M19.779 3.585c-.19-1.616-1.056-2.63-2.594-2.78-1.76-.172-5.572-.27-7.34-.27C6.23.535 4.613.63 2.903.82 1.273 1.002.56 1.783.28 3.394.084 4.524 0 5.582 0 8.082c0 2.245.098 3.657.25 4.846.21 1.631 1.249 2.548 2.771 2.685 1.772.159 5.32.238 7.075.238 1.695 0 5.51-.095 7.207-.302 1.518-.185 2.24-1.059 2.476-2.669 0 0 .25-1.764.25-4.814 0-1.737-.117-3.353-.25-4.48zM7.885 11.228V5.02l5.483 3.072-5.483 3.136z"></path>
  </symbol>
</svg>