<svg width="283" height="86" viewBox="0 0 283 86" fill="none" xmlns="http://www.w3.org/2000/svg">
<path d="M124.48 54.6298C124.401 54.0737 124.48 53.6765 124.877 53.3587C125.036 53.2793 125.116 53.1204 125.195 52.9615C125.434 51.5315 126.387 50.4988 127.181 49.3866C127.34 49.1483 127.499 48.8305 127.658 48.5922C127.976 47.8772 128.293 47.1622 128.611 46.4473C128.77 46.05 129.008 45.6528 129.247 45.2556C129.326 45.0967 129.406 45.0173 129.485 44.9379C130.121 44.5406 130.359 43.9846 130.597 43.2696C130.677 43.0312 130.915 42.7929 131.074 42.5546C131.392 41.9985 131.709 41.5218 132.027 40.9658C132.345 40.4891 132.742 40.0125 133.06 39.5358C133.775 38.4236 134.569 37.3114 135.284 36.1992C135.364 36.1198 135.364 35.9609 135.443 35.802C135.205 35.802 134.967 35.7226 134.808 35.802C133.934 36.1198 132.98 36.4376 132.107 36.8348C130.518 37.4703 129.008 38.1058 127.42 38.7414C126.387 39.1386 125.592 39.8536 124.719 40.4097C124.083 40.8069 123.447 41.363 122.494 40.9658C122.176 41.2835 121.938 41.5218 121.461 41.6013C121.144 41.6013 120.826 41.8396 120.588 42.0779C119.873 42.4752 119.237 42.8724 118.601 43.349C117.013 44.5406 115.106 45.3351 113.756 46.8445C113.597 47.0033 113.358 47.0828 113.12 47.3211C112.564 47.7978 112.008 48.1155 111.611 48.7511C111.293 49.2277 110.737 49.5455 110.34 49.9427C110.181 50.1016 110.101 50.2605 109.942 50.3399C109.386 50.9754 108.83 51.6904 108.274 52.4054C108.195 52.4848 108.036 52.6437 108.115 52.7232C108.115 53.1204 107.877 53.2793 107.638 53.597C107.082 54.5503 106.606 55.5036 106.129 56.4569C105.811 57.1719 105.573 57.8869 105.335 58.6813C105.255 58.8402 105.176 58.9197 105.255 59.0785C105.335 59.7935 105.017 60.4291 104.779 61.144C104.699 61.3824 104.699 61.6207 104.699 61.859C104.699 63.0506 104.62 64.3217 104.699 65.5133C104.699 66.1489 104.937 66.7844 105.096 67.4199C105.255 67.8966 105.335 68.2938 105.176 68.7705C104.54 68.4527 104.381 67.8966 104.302 67.3405C104.222 66.7844 104.222 66.3078 103.746 65.8311C103.666 65.6722 103.666 65.4339 103.587 65.275C103.507 64.4806 103.428 63.6862 103.349 62.8123C103.269 62.0973 103.587 61.4618 103.666 60.7468C103.666 60.5085 103.825 60.2702 103.746 60.1113C103.666 59.2374 103.905 58.443 104.302 57.728C104.381 57.4897 104.381 57.2514 104.461 57.013C105.017 55.6625 105.573 54.3915 106.129 53.0409C106.288 52.7232 106.367 52.4054 106.288 52.0876C105.97 52.326 105.573 52.4848 105.335 52.8026C104.381 53.8354 103.031 54.312 102.078 55.2653C101.045 55.5831 100.489 56.5364 99.5354 56.9336C98.741 57.2514 98.1849 57.8869 97.4699 58.3636C97.2316 58.5224 96.9138 58.6813 96.6755 58.8402C96.5166 58.9196 96.3577 58.9991 96.2783 59.0785C96.04 59.4757 95.7222 59.5552 95.325 59.7141C95.0072 59.7935 94.7689 60.1113 94.5306 60.2702C93.4978 60.9057 92.4651 61.6207 91.4323 62.1768C90.5585 62.6534 89.6846 63.1301 88.7313 63.6067C87.4602 64.2423 86.2686 64.8778 84.9975 65.5133C84.2825 65.8311 83.647 66.1489 82.932 66.3872C81.8993 66.705 81.4226 66.3078 81.5021 65.1161C82.217 64.7984 82.7731 64.2423 83.1703 63.5273C83.1703 63.4478 83.2498 63.4478 83.2498 63.3684C83.9648 62.4945 84.6797 61.5412 85.4742 60.6674C85.633 60.4291 85.9508 60.3496 85.7919 60.0318C85.7919 59.9524 85.8714 59.7935 85.9508 59.7141C86.5864 59.158 86.9836 58.3636 87.5397 57.728C87.9369 57.1719 88.2546 56.5364 88.8902 56.1392C88.9696 56.0597 89.0491 55.9008 89.1285 55.8214C89.764 54.7887 90.3996 53.7559 91.0351 52.7232C91.4323 52.1671 91.909 51.6904 92.2267 51.1343C93.0212 49.7838 94.2128 48.6716 95.1661 47.4006C95.2455 47.3211 95.1661 47.0828 95.2455 46.8445C95.0072 46.9239 94.8483 46.9239 94.6894 46.9239C93.3389 47.6389 91.909 47.9566 90.5585 48.5127C89.6052 48.8305 88.6518 49.1483 87.8574 49.6249C86.9836 50.1016 86.1097 50.3399 85.2358 50.7371C83.8059 51.2932 82.3759 51.8493 80.946 52.326C80.7871 52.4054 80.5488 52.4848 80.3899 52.5643C79.1188 53.1998 77.7683 53.8354 76.4178 54.312C75.0673 54.7887 73.7962 55.5036 72.4457 56.0597C71.7307 56.3775 71.0952 56.7747 70.3007 56.9336C69.8241 57.013 69.4269 57.3308 68.9502 57.4897C67.838 57.9663 66.6464 58.5224 65.5342 58.9991C65.137 59.158 64.8192 59.3169 64.422 59.4757C63.4687 59.9524 62.5949 60.429 61.6416 60.8263C60.0527 61.4618 58.3844 62.0179 56.7956 62.6534C56.3984 62.8123 56.0806 63.1301 55.7629 63.289C55.1273 63.6067 54.4918 63.8451 53.8562 64.1628C53.3796 64.4011 52.9029 64.6395 52.4263 64.8778C51.6319 65.275 50.9169 65.6722 50.1225 65.99C48.6925 66.6255 47.2626 67.1816 45.912 67.976C45.1971 68.3732 44.5615 68.6116 43.8466 68.8499C43.3699 69.0088 42.9727 69.3266 42.5755 69.5649C42.2577 69.8032 41.9399 69.9621 41.5427 69.8826C41.4633 69.8826 41.3044 69.8826 41.225 69.9621C40.5894 70.5976 39.795 70.9948 38.9211 71.2332C38.6828 71.3126 38.4445 71.4715 38.2856 71.6304C37.0145 72.4248 35.664 72.9809 34.2341 73.537C33.4396 73.8547 32.7247 74.3314 32.0097 74.6492C31.3742 74.9669 30.7386 75.2053 30.1031 75.523C29.6264 75.7614 29.1498 75.9997 28.6731 76.238C27.8787 76.6352 27.0843 77.1119 26.2104 77.5091C25.4954 77.8269 24.7805 78.1446 24.0655 78.4624C23.43 78.7802 22.7944 79.1774 22.1589 79.4951C21.4439 79.8923 20.6495 80.2896 19.8551 80.6073C18.3457 81.2429 16.8363 81.7989 15.3269 82.4345C14.6119 82.7523 13.8969 83.1495 13.1819 83.4672C12.2286 83.8644 11.1959 84.1822 10.1631 84.5C9.84537 84.5794 9.5276 84.8177 9.13039 84.8972C7.38267 85.5327 5.5555 85.9299 3.64889 85.6916C3.0928 85.6122 2.5367 85.3738 2.06005 85.0561C1.5834 84.7383 1.18619 84.2617 0.788978 83.785C-0.00544249 82.9111 -0.164327 81.9578 0.153442 80.7662C0.391768 79.654 0.709536 78.6213 1.18619 77.5885C1.34507 77.1119 1.66284 76.7147 1.82172 76.238C2.13949 75.523 2.45726 74.7286 2.85447 74.0136C3.25168 73.3781 3.72833 72.7426 4.12554 72.1865C4.52275 71.7893 4.9994 71.1537 5.31717 70.3593C5.5555 69.8032 5.87327 69.3266 6.27048 68.9293C6.58825 68.5321 7.14434 68.3732 7.14434 67.6583C7.14434 67.6583 7.14434 67.5788 7.22378 67.5788C8.09764 66.7844 8.5743 65.6722 9.20983 64.7189C9.68648 64.0834 10.1631 63.5273 10.7192 62.9712C11.1959 62.4151 11.752 61.9384 12.2286 61.3824C12.6258 60.9851 12.9436 60.5879 13.2614 60.0318C13.6586 59.3963 14.1352 58.8402 14.6913 58.3636C15.3269 57.728 16.2007 57.2514 16.7568 56.5364C17.154 55.9803 17.7101 55.6625 18.1073 55.1859C18.5045 54.6298 18.9812 54.1531 19.3784 53.597C19.4579 53.5176 19.5373 53.3587 19.6167 53.2793C20.2523 52.9615 20.57 52.326 21.1261 51.9288C22 51.3727 22.5561 50.5782 23.2711 49.9427C23.7477 49.466 24.3833 49.1483 24.7805 48.4333C25.0982 47.9567 25.7338 47.7978 26.131 47.2417C26.6076 46.5267 27.3226 45.8912 28.117 45.4939C29.3087 44.779 30.1825 43.7462 31.2947 42.9518C31.8508 42.5546 32.4069 42.1574 32.963 41.7602C33.4396 41.4424 33.8369 41.0452 34.3135 40.7274C35.1874 40.0919 35.9818 39.5358 36.8557 38.9797C37.809 38.2647 38.7623 37.5497 39.7156 36.8348C39.795 36.7553 39.8745 36.6759 39.9539 36.5964C41.7016 35.802 43.211 34.531 44.9587 33.5776C45.7532 33.101 46.3887 32.4655 47.2626 32.1477C48.1364 31.8299 48.8514 31.1149 49.6458 30.7177C50.2814 30.4 50.8374 29.8439 51.6319 29.8439C51.7113 29.8439 51.8702 29.7644 51.9496 29.685C52.3468 29.2878 52.9029 29.1289 53.3796 28.8111C53.9357 28.4934 54.4123 28.0961 55.0479 28.1756C55.1273 28.1756 55.2862 28.0961 55.3656 28.0167C55.604 27.3017 56.3189 27.3017 56.875 26.984C58.1461 26.3484 59.4172 25.7923 60.6883 25.2362C61.9593 24.6801 63.3098 24.2829 64.5015 23.568C64.6604 23.4885 64.8987 23.4885 65.0576 23.4091C66.4875 23.0913 67.7586 22.2174 69.1886 21.8997C70.2213 21.6613 71.1746 21.2641 72.1279 20.9464C72.6046 20.7875 73.0812 20.4697 73.5579 20.3108C74.5112 19.9931 75.385 19.6753 76.3383 19.3575C77.6094 18.9603 78.801 18.5631 80.0721 18.3248C81.661 18.007 83.0909 17.3715 84.6003 17.0537C86.4275 16.6565 88.2546 16.1004 90.0818 15.7032C91.194 15.4649 92.3062 15.1471 93.3389 14.9088C94.2922 14.6705 95.2455 14.591 96.1194 14.3527C97.1521 14.1144 98.1849 13.876 99.2176 13.6377C99.6149 13.5583 100.012 13.3199 100.409 13.3994C101.68 13.4788 102.872 12.9227 104.064 12.8433C105.176 12.7638 106.209 12.605 107.321 12.4461C107.4 12.4461 107.4 12.4461 107.48 12.4461C108.671 12.3666 109.783 12.3666 110.975 12.2077C112.008 12.1283 113.041 11.9694 114.073 11.89C114.391 11.89 114.709 11.8105 115.027 11.8105C116.457 11.89 117.887 11.7311 119.316 11.9694C120.111 12.1283 120.826 11.7311 121.223 11.0161C121.541 10.46 121.859 9.98337 122.176 9.42728C122.812 8.47397 123.368 7.44123 124.083 6.56736C125.592 4.7402 127.022 2.83359 129.008 1.56252C129.882 1.00642 130.915 0.84754 131.948 1.00642C132.266 1.08587 132.345 1.16531 132.742 1.88029C132.504 1.95973 132.266 2.03917 132.027 2.03917C130.915 2.03917 129.962 2.35694 129.247 3.2308C128.929 3.62801 128.452 3.86634 128.055 4.26355C127.34 4.97852 126.546 5.61406 126.069 6.48792C125.275 7.75899 124.401 8.87118 123.606 10.0628C123.209 10.6189 122.732 11.175 122.256 11.8105C123.13 12.0489 123.924 12.3666 124.719 12.4461C125.831 12.605 126.863 12.7638 127.976 12.9227C129.803 13.2405 131.392 14.0349 132.901 14.9882C133.934 15.6238 134.887 16.4976 135.682 17.5304C136.317 18.4042 136.714 19.2781 137.111 20.1519C137.27 20.4697 137.191 20.8669 137.191 21.2641C137.111 22.2174 136.794 23.0913 136.317 23.8857C135.92 24.6801 135.364 25.4746 134.887 26.269C134.728 26.5868 134.49 26.8251 134.252 27.0634C133.457 27.9373 132.663 28.8111 131.868 29.685C131.63 29.9233 131.392 30.1616 131.153 30.4C130.756 30.8766 130.359 31.3533 129.882 31.8299C129.644 32.0682 129.326 32.3066 129.088 32.6243C129.008 32.7832 128.85 32.9421 128.85 33.101C128.929 33.2599 129.167 33.4188 129.247 33.4188C130.121 33.3393 130.518 33.816 130.677 34.6104C130.597 34.8487 130.438 35.1665 130.279 35.5637C130.597 35.5637 130.915 35.6431 131.074 35.5637C131.789 35.4048 132.424 35.087 133.139 34.9282C133.775 34.7693 134.41 34.4515 135.046 34.4515C136.158 34.3721 136.794 33.7365 137.35 32.9421C137.826 32.3066 138.303 31.5122 138.78 30.8766C139.018 30.5588 138.939 30.0822 139.415 29.9233C139.495 29.9233 139.415 29.4467 139.336 29.2083C139.256 29.1289 138.939 29.0495 138.859 29.1289C138.224 29.3672 137.668 29.685 137.032 30.0028C136.476 30.3205 135.92 30.6383 135.364 30.9561C134.967 31.1944 134.808 31.671 134.887 32.0682C134.967 32.4655 134.808 32.7038 134.808 33.0216C134.808 33.2599 134.728 33.6571 134.41 33.5776C134.093 33.4982 133.695 33.2599 133.616 33.0216C133.298 32.0682 133.298 31.0355 134.093 30.2411C134.569 29.685 135.046 29.2878 135.761 29.0495C136.873 28.6522 137.906 28.1756 139.018 27.7784C139.574 27.5401 140.051 27.3812 140.607 27.2223C140.766 27.1428 140.925 27.0634 141.004 26.984C141.401 26.3484 141.957 25.9512 142.434 25.3157C143.546 23.8857 144.341 22.2969 145.532 20.9464C146.009 20.3903 146.406 19.6753 146.803 19.0398C147.28 18.3248 147.757 17.6892 148.233 16.9743C149.107 15.6238 149.902 14.3527 150.776 13.0022C151.49 11.89 152.285 10.6983 153.079 9.58616C153.318 9.18895 153.477 8.7123 153.715 8.23565C154.112 7.36178 154.509 6.48792 154.986 5.6935C155.145 5.37573 155.939 5.13741 156.336 5.37573C156.734 5.53462 156.813 6.01127 156.575 6.48792C156.098 7.44123 155.701 8.47397 155.224 9.34783C154.827 10.0628 154.43 10.8572 153.953 11.5722C153.159 12.7638 152.523 14.1144 151.649 15.306C150.855 16.3387 150.14 17.5304 149.425 18.6425C149.266 18.8809 149.187 19.1192 148.948 19.2781C148.233 19.9931 147.836 20.8669 147.28 21.6613C147.042 22.0586 146.724 22.3763 146.486 22.7735C146.009 23.4091 145.532 24.0446 145.056 24.6801C144.817 24.9979 144.579 25.3157 144.261 25.6334C144.42 26.1101 144.817 26.0307 145.135 25.9512C146.009 25.7129 146.883 25.4746 147.757 25.3157C149.266 25.0774 150.696 24.6007 152.205 24.7596C152.603 24.7596 153.079 24.6801 153.477 24.6801C153.794 24.6801 154.112 24.7596 154.35 24.839C154.43 24.9185 154.589 25.0774 154.589 25.2362C154.589 25.3157 154.35 25.554 154.271 25.554C152.444 25.554 150.855 26.269 149.107 26.5868C148.869 26.6662 148.551 26.5868 148.233 26.5868C147.677 26.5868 147.28 26.6662 146.724 26.9045C146.247 27.1428 145.771 27.1428 145.294 27.3017C144.897 27.3812 144.42 27.5401 144.023 27.6989C143.864 27.7784 143.626 27.9373 143.467 27.9373C142.593 27.8578 142.196 28.4934 141.719 29.0495C140.686 30.3205 139.733 31.671 138.78 33.0216C138.7 33.101 138.621 33.3393 138.7 33.4188C138.78 33.4982 139.018 33.5776 139.098 33.5776C140.448 33.4188 141.799 33.4188 143.149 33.4982C144.5 33.6571 145.532 34.2132 146.327 35.3254C146.565 35.6431 146.803 35.9609 147.042 36.2787C147.757 37.5497 147.598 38.9797 147.359 40.3302C147.042 42.0779 146.088 43.5079 145.056 44.8584C143.785 46.6061 142.196 48.1155 140.527 49.466C139.892 50.0221 139.256 50.6577 138.621 51.2138C137.985 51.7699 137.27 52.326 136.555 52.8026C135.523 53.5176 134.569 54.312 133.457 54.8681C132.027 55.6625 130.597 56.5364 128.929 56.9336C128.055 57.0925 127.181 57.1719 126.307 57.4897C125.91 57.6486 125.513 57.3308 125.275 57.013C125.036 56.6158 125.195 56.2981 125.513 56.0597C125.91 55.742 126.387 55.3448 126.863 55.027C127.102 54.8681 127.261 54.6298 127.499 54.5503C127.737 54.3915 127.896 54.312 128.135 54.2326C128.373 54.1531 128.691 54.312 128.691 54.6298C128.691 54.7887 128.532 55.027 128.452 55.1859C128.373 55.2653 128.214 55.3448 127.976 55.5036C128.293 55.5831 128.452 55.742 128.532 55.742C129.247 55.5036 130.041 55.3448 130.756 55.027C131.948 54.4709 133.06 53.7559 134.172 53.0409C134.728 52.6437 135.205 52.0082 135.92 51.7699C136.238 51.611 136.555 51.2138 136.873 50.896C137.826 50.1016 138.859 49.3866 139.892 48.6716C140.369 48.2744 140.766 47.7183 141.163 47.1622C141.401 46.8445 141.719 46.5267 141.957 46.2089C142.514 45.5734 143.07 44.8584 143.626 44.2229C143.864 43.9051 144.182 43.5873 144.341 43.1901C144.738 42.3957 145.135 41.6013 145.373 40.7274C145.612 40.0919 145.612 39.3769 145.691 38.7414C145.85 36.9937 144.182 35.2459 142.355 35.1665C141.084 35.087 139.812 35.1665 138.541 35.2459C137.668 35.2459 136.873 35.4843 136.476 36.4376C136.238 36.8348 135.84 37.1525 135.523 37.6292C135.125 38.1853 134.728 38.8208 134.252 39.3769C133.854 39.933 133.457 40.4097 133.139 40.9658C132.901 41.2835 132.583 41.6013 132.424 41.9985C132.027 42.7135 131.63 43.349 131.074 43.9846C130.756 44.3023 130.677 44.8584 130.438 45.2556C129.564 46.6061 128.611 47.8772 127.737 49.2277C126.863 50.6577 125.99 52.0082 125.036 53.4381C125.354 53.6765 124.877 54.1531 124.48 54.6298ZM119.555 13.6377C119.158 13.2405 118.76 13.3994 118.204 13.3994C117.648 13.4788 117.013 13.4788 116.457 13.4788C115.742 13.4788 114.947 13.2405 114.312 13.3994C113.517 13.5583 112.802 13.5583 112.008 13.4788C111.849 13.4788 111.69 13.4788 111.531 13.4788C110.26 13.6377 108.989 13.7171 107.718 13.876C107.082 13.9555 106.367 14.1144 105.732 14.1144C104.381 14.1144 103.11 14.2732 101.76 14.5116C101.363 14.591 101.045 14.6705 100.648 14.7499C99.456 14.9882 98.1849 15.0677 96.9933 15.3854C95.325 15.7826 93.4978 15.7826 91.909 16.5771C91.7501 16.6565 91.5118 16.6565 91.3529 16.6565C90.3201 16.4976 89.5257 17.2126 88.5724 17.1332C87.9369 17.6892 87.1425 17.5304 86.4275 17.7687C85.1564 18.0865 83.8059 18.3248 82.4554 18.722C80.946 19.1986 79.4366 19.7547 77.9272 20.2314C76.7355 20.6286 75.5439 20.9464 74.3523 21.2641C74.114 21.3436 73.7962 21.3436 73.5579 21.5025C72.5251 21.8997 71.4924 22.3763 70.4596 22.7735C69.268 23.2502 68.0764 23.6474 66.8847 24.0446C66.567 24.1241 66.2492 24.2829 65.9314 24.4418C65.4548 24.6007 64.9781 24.839 64.5809 24.9979C64.2632 25.1568 63.8659 25.2362 63.5482 25.3951C62.2771 25.9512 61.006 26.5867 59.735 27.1428C58.9405 27.4606 58.0667 27.6989 57.3517 28.1756C56.2395 28.8906 55.0479 29.3672 53.7768 29.9233C53.6179 30.0028 53.459 30.1616 53.3002 30.2411C52.9824 30.4794 52.7441 30.7177 52.4263 30.8766C51.3935 31.4327 50.2814 31.9888 49.2486 32.5449C48.057 33.101 46.9448 33.8954 45.8326 34.6104C45.2765 34.9282 44.7999 35.4843 44.2438 35.7226C43.6877 36.0404 43.0521 36.2787 42.5755 36.6759C42.1783 36.9937 41.7016 37.1525 41.3838 37.3909C40.7483 37.947 40.1128 38.4236 39.4772 38.8208C38.6034 39.3769 37.809 40.0124 36.9351 40.648C36.1407 41.2041 35.2668 41.6807 34.5518 42.3163C33.678 42.9518 32.8836 43.7462 32.0097 44.3818C30.5003 45.4145 29.1498 46.6856 27.7993 47.8772C26.3693 49.0688 25.0188 50.2605 23.7477 51.5315C21.6028 53.597 19.5373 55.5831 17.5512 57.8075C17.2335 58.1252 16.9157 58.3636 16.5979 58.6813C15.6446 59.7935 14.6913 60.8263 13.738 61.9384C13.1819 62.6534 12.5464 63.289 11.9903 64.0039C11.1164 65.1161 10.2426 66.3078 9.44816 67.4994C8.65374 68.5321 7.93876 69.5649 7.14434 70.6771C6.74713 71.2332 6.42936 71.8687 6.03215 72.4248C5.39662 73.3781 4.60219 74.1725 4.36387 75.2847C4.36387 75.3641 4.20498 75.4436 4.20498 75.523C3.96666 75.8408 3.72833 76.0791 3.56945 76.4763C3.01335 77.7474 2.21893 78.8596 2.21893 80.369C1.74228 81.0045 1.90117 81.799 2.06005 82.5139C2.21893 83.1495 2.5367 83.785 3.17224 83.9439C4.0461 84.1028 4.91996 84.1822 5.79383 84.1822C6.11159 84.1822 6.42936 84.0233 6.66769 84.0233C8.33597 84.0233 9.76593 83.2289 11.2753 82.7523C11.9903 82.5139 12.7053 82.0373 13.4997 81.8784C14.5324 81.6401 15.4858 81.0045 16.5185 80.6868C17.869 80.2896 19.0606 79.5746 20.3317 79.0185C20.9673 78.7007 21.5233 78.3829 22.1589 78.1446C22.7944 77.8269 23.43 77.5091 24.0655 77.2708C24.6216 77.0324 25.2571 76.953 25.7338 76.4763C25.8132 76.3969 25.9721 76.3969 26.0515 76.3175C27.0843 75.8408 28.0376 75.4436 29.0703 74.9669C30.0236 74.4903 31.0564 73.9342 32.0097 73.4575C32.248 73.2987 32.4863 73.2192 32.7247 73.0603C33.4396 72.6631 34.1546 72.3454 34.8696 71.9481C36.0612 71.3126 37.4117 71.0743 38.5239 70.2004C38.5239 70.2004 38.6034 70.2004 38.6034 70.121C40.0333 69.4854 41.4633 68.7705 42.8932 68.1349C43.5288 67.8172 44.1643 67.4994 44.8793 67.1816C45.5943 66.8639 46.3887 66.705 47.0242 66.3078C48.2159 65.6722 49.3281 64.9572 50.5991 64.56C50.6786 64.56 50.758 64.56 50.8374 64.4806C51.3935 63.8451 52.2674 63.7656 52.9029 63.4478C53.1413 63.289 53.459 63.289 53.6974 63.2095C54.3329 62.8918 54.889 62.574 55.5245 62.3357C56.1601 62.0973 56.5573 61.4618 57.3517 61.5412C57.4311 61.5412 57.59 61.3824 57.6695 61.3029C57.8283 61.2235 57.9872 61.0646 58.1461 60.9851C58.8611 60.9851 59.4172 60.5085 60.0527 60.1907C61.1649 59.7141 62.2771 59.158 63.4687 58.6813C64.3426 58.2841 65.2959 57.8869 66.1698 57.4897C66.4875 57.3308 66.7259 57.013 66.9642 56.9336C67.5997 56.6953 68.3147 56.4569 68.9502 56.2186C69.4269 56.0597 69.9035 55.8214 70.4596 55.6625C71.254 55.3448 71.969 55.027 72.7634 54.7092C73.4784 54.3915 74.114 54.0737 74.8289 53.8354C75.5439 53.5176 76.2589 53.2793 76.9739 52.9615C77.6889 52.6437 78.4833 52.4848 79.1982 52.0876C79.8338 51.6904 80.5488 51.3727 81.2637 51.1343C82.2965 50.7371 83.4087 50.3399 84.4414 49.9427C85.3947 49.6249 86.2686 49.2277 87.2219 48.91C88.0958 48.5922 88.9696 48.3539 89.8435 47.9566C91.1145 47.3211 92.4651 46.9239 93.7361 46.3678C94.2922 46.1295 95.0072 45.9706 95.5633 45.6528C96.1194 45.3351 96.8344 45.2556 97.311 44.6201C97.7082 43.9846 98.3438 43.5079 98.6615 42.7929C98.741 42.5546 98.9793 42.2368 99.2176 42.0779C99.6149 41.8396 100.012 41.6013 99.8532 41.0452C99.8532 40.9658 99.9326 40.8069 99.9326 40.7274C100.568 40.2508 100.965 39.6152 101.363 38.9797C102.078 37.947 102.713 36.8348 103.666 36.0403C103.746 36.0403 103.746 35.9609 103.746 35.8815C104.143 34.9282 104.937 34.2132 105.494 33.3393C105.811 32.8627 106.209 32.5449 106.526 32.0682C106.924 31.5122 107.241 30.8766 107.638 30.3205C107.797 30.0822 108.115 30.0028 108.195 29.7644C108.751 28.97 109.307 28.1756 109.863 27.3812C110.498 26.5073 111.055 25.7129 111.69 24.9185C112.167 24.2829 112.802 23.8063 113.041 22.9324C113.279 22.138 113.914 21.5025 114.391 20.8669C115.106 19.9136 115.821 18.9603 116.536 18.007C117.648 16.5771 118.601 15.1471 119.555 13.6377ZM99.2176 43.8257C100.171 43.9051 100.727 43.4285 101.363 43.1901C102.475 42.7135 103.666 42.3957 104.779 41.9985C105.652 41.6807 106.606 41.4424 107.48 41.1246C109.386 40.3302 111.372 39.6152 113.279 38.9003C113.994 38.6619 114.629 38.2647 115.344 38.1058C116.377 37.7881 117.41 37.6292 118.363 37.0731C118.443 36.9937 118.601 36.9937 118.76 36.9937C119.475 36.7553 120.111 36.517 120.826 36.2787C121.779 35.9609 122.812 35.5637 123.765 35.3254C124.877 35.0076 125.831 34.6104 126.625 33.7365C127.896 32.3066 129.326 31.0355 130.677 29.685C130.836 29.5261 130.915 29.4467 130.994 29.2878C131.789 28.255 132.583 27.1428 133.616 26.269C133.775 26.1101 133.934 25.8718 134.093 25.7129C134.331 25.2362 134.49 24.7596 134.728 24.3624C135.284 23.4091 135.523 22.3763 135.682 21.3436C135.761 21.1053 135.761 20.708 135.602 20.5492C135.125 19.6753 134.728 18.722 134.013 18.0865C133.139 17.2126 132.107 16.5771 131.074 15.9415C130.121 15.306 129.088 15.0677 127.976 14.8293C127.578 14.7499 127.181 14.4321 126.784 14.4321C126.228 14.4321 125.751 14.2732 125.275 14.0349C125.036 13.9555 124.798 13.9555 124.56 13.9555C124.321 13.9555 124.083 13.9555 123.765 13.9555C123.05 13.876 122.335 13.7966 121.62 13.7171C120.985 14.591 120.429 15.3854 119.873 16.1004C118.84 17.5304 118.045 19.1986 116.615 20.3903C116.536 21.0258 116.059 21.2641 115.742 21.6613C115.027 22.6941 114.391 23.7268 113.676 24.7596C113.199 25.4746 112.643 26.1101 112.087 26.7456C111.452 27.5401 110.896 28.3345 110.34 29.1289C109.625 30.1616 108.91 31.1944 108.195 32.1477C107.4 33.1804 106.526 34.2132 105.732 35.2459C104.779 36.4376 103.825 37.7086 102.872 38.9003C102.475 39.4564 101.919 39.933 101.601 40.4891C101.045 41.5219 100.33 42.3957 99.5354 43.2696C99.456 43.349 99.3765 43.5873 99.2176 43.8257ZM84.8386 63.9245C85.4742 63.6862 86.0303 63.6067 86.5069 63.289C87.6191 62.4945 88.9696 62.2562 90.0024 61.3824C90.0818 61.3029 90.2407 61.3029 90.3996 61.2235C90.6379 61.0646 90.8762 60.9851 91.1145 60.8263C91.4323 60.6674 91.6706 60.4291 91.909 60.2702C92.5445 59.873 93.2595 59.5552 93.895 59.0785C95.2455 58.2047 96.5961 57.2514 98.026 56.3775C99.7737 55.2653 101.521 54.2326 103.031 52.8821C103.746 52.1671 104.858 52.0082 105.414 51.1343H105.494C106.765 50.4988 107.877 49.7838 108.83 48.7511C108.91 48.6716 108.989 48.5127 109.148 48.5127C110.181 48.195 110.657 47.1622 111.611 46.6061C112.405 46.1295 113.041 45.4145 113.835 44.779C114.073 44.5406 114.471 44.4612 114.788 44.2229C115.344 43.7462 115.742 43.1107 116.298 42.7929C117.172 42.3163 117.887 41.6013 118.681 40.9658C119.237 40.5685 119.714 40.0919 120.19 39.6947C120.429 39.4564 120.667 39.218 120.985 39.0591C121.541 38.6619 122.018 38.1058 122.574 37.3909C122.097 37.4703 121.779 37.4703 121.541 37.5497C121.303 37.6292 120.985 37.7881 120.746 37.8675C119.793 38.1853 118.84 38.3442 117.966 38.8208C117.33 39.1386 116.695 39.2975 115.98 39.5358C115.583 39.6947 115.185 39.7741 114.788 39.933C114.153 40.1713 113.517 40.4891 112.882 40.7274C112.484 40.8863 112.008 41.1246 111.531 41.2041C110.34 41.6013 109.068 41.8396 107.877 42.3163C106.367 42.8724 104.937 43.5079 103.508 44.064C103.11 44.2229 102.713 44.3023 102.316 44.4612C102.078 44.5406 101.919 44.6201 101.68 44.6995C101.204 44.8584 100.727 45.0967 100.33 45.2556C99.5354 45.5734 98.741 45.8117 98.026 46.2089C97.1521 46.6856 96.7549 47.5594 96.1988 48.2744C95.1661 49.6249 94.3717 51.1343 93.3389 52.4054C92.1473 53.8354 91.1146 55.4242 90.0024 56.9336C89.6846 57.3308 89.4463 57.728 89.2079 58.1252C88.4135 59.2374 87.5397 60.2702 86.8247 61.3824C86.0303 62.0179 85.4742 62.9712 84.8386 63.9245ZM121.779 39.7741C121.779 39.8536 121.779 39.933 121.779 40.0125C122.018 40.0125 122.335 40.0125 122.574 39.933C122.971 39.7741 123.289 39.5358 123.686 39.3769C124.639 38.8208 125.672 38.5031 126.466 37.7086C126.943 37.3114 127.42 36.9937 127.896 36.5964C128.214 36.2787 128.452 35.8815 128.85 35.4843C128.532 35.4843 128.373 35.4048 128.214 35.4048C127.181 35.7226 125.99 35.9609 125.275 36.9142C125.036 37.1525 124.798 37.3909 124.56 37.6292C123.686 38.2647 122.732 38.9797 121.779 39.7741ZM120.985 40.4097C121.144 40.4891 121.303 40.5685 121.303 40.5685C121.382 40.4891 121.461 40.4097 121.541 40.3302C121.461 40.2508 121.382 40.1713 121.382 40.2508C121.223 40.1713 121.144 40.2508 120.985 40.4097Z" fill="#203485"/>
<path d="M197.646 9.03007C197.646 8.79175 197.646 8.55342 197.726 8.23565C197.487 8.3151 197.17 8.23565 197.011 8.39454C196.534 8.79175 196.137 9.18896 195.74 9.66561C195.184 10.3011 194.548 10.8572 193.992 11.4928C193.356 12.2078 192.641 12.8433 192.085 13.6377C191.609 14.3527 190.814 14.7499 190.576 15.5443C190.576 15.6238 190.497 15.6238 190.497 15.7032C189.067 16.9743 188.034 18.6426 186.763 20.0725C185.889 21.1053 185.015 22.0586 184.141 23.0913C183.665 23.7268 183.188 24.3624 182.711 24.9185C182.393 25.3157 182.076 25.7129 181.758 26.1101C181.281 26.7456 180.805 27.3017 180.249 27.9373C179.851 28.4934 179.375 28.97 178.977 29.5261C177.945 30.7972 176.912 32.0683 175.879 33.3393C174.926 34.4515 174.052 35.5637 173.099 36.6759C172.86 36.9142 172.702 37.232 172.622 37.7086C172.781 37.6292 173.019 37.6292 173.099 37.5498C174.131 36.7553 175.164 36.0404 176.197 35.1665C176.515 34.9282 176.833 34.531 177.15 34.2132C177.468 33.8954 177.706 33.4982 178.024 33.2599C178.421 32.8627 178.501 32.9421 178.977 33.4188C178.898 33.4982 178.898 33.6571 178.819 33.6571C178.104 34.4515 177.309 35.1665 176.515 35.9609C176.356 36.1198 176.197 36.1992 176.038 36.3581C175.164 37.0731 174.211 37.7881 173.337 38.5031C173.019 38.7414 172.781 39.1386 172.304 39.1386H172.225C171.51 40.0125 170.398 40.5686 169.603 41.4424C168.65 42.4752 168.014 43.7462 166.982 44.8584C167.379 45.5734 167.458 46.2884 167.22 47.1622C167.061 47.6389 167.379 47.7978 167.935 47.6389C168.65 47.3211 169.365 46.9239 170.159 46.5267C169.921 45.5734 170.477 45.1762 171.192 44.779C171.748 44.4612 172.225 44.2229 172.86 43.9051C173.099 44.064 173.337 44.3023 173.496 44.5407C173.814 44.9379 173.734 45.3351 173.337 45.6528C173.178 45.8117 172.94 46.0501 172.702 46.2884C173.575 46.6061 174.132 46.05 174.767 45.8117C175.403 45.5734 176.118 45.4145 176.674 45.2556C176.753 45.0967 176.753 45.0173 176.753 44.9379C176.515 44.064 176.594 43.9051 177.389 43.5079C177.945 43.2696 178.501 42.8724 179.057 42.7135C179.534 42.5546 180.09 42.4752 180.646 42.4752C181.043 42.4752 181.361 43.0313 181.281 43.4285C181.202 43.5873 181.122 43.7462 180.964 43.9846C181.837 43.9051 182.552 43.7462 183.108 43.0313C183.585 42.4752 184.221 42.4752 184.856 42.4752C185.253 42.4752 185.333 42.7929 185.333 43.4285C186.207 43.5873 187.081 42.7135 188.113 43.349C187.716 44.064 187.001 44.3023 186.445 44.4612C185.571 44.779 184.697 45.2556 183.665 45.2556C183.426 45.2556 183.188 45.2556 182.95 45.1762C182.393 45.0173 181.917 45.0173 181.44 45.2556C180.805 45.5734 180.09 45.5734 179.454 45.7323C178.819 45.8912 178.183 45.8912 177.548 45.9706C177.468 45.9706 177.309 46.05 177.23 46.1295C176.594 46.6856 175.8 46.9239 174.926 47.0828C174.529 47.1622 174.131 47.3211 173.734 47.48C173.019 47.7978 172.304 47.8772 171.51 47.5594C171.351 47.48 171.033 47.5595 170.874 47.6389C170.318 47.8772 169.762 48.1155 169.286 48.4333C168.65 48.8305 167.935 49.1483 167.141 49.2277C166.743 49.3072 166.426 49.4661 166.267 49.7838C165.79 50.4988 165.393 51.1343 164.996 51.8493C164.916 51.9288 164.916 52.0082 164.916 52.0876C165.075 52.8821 164.519 53.3587 164.201 53.9943C163.963 54.4709 163.804 54.9476 163.566 55.3448C163.327 55.8214 163.01 56.2981 162.771 56.6953C162.612 56.9336 162.533 57.1719 162.374 57.3308C161.818 58.3636 161.182 59.3169 160.626 60.3496C160.07 61.3029 159.355 62.0973 158.72 63.0506C158.561 63.3684 158.084 63.4478 157.687 63.6862C156.893 62.8918 156.972 62.0973 157.131 61.2235C157.21 60.7468 157.528 60.2702 157.608 59.7935C157.766 59.2374 157.925 58.6813 158.084 58.0458C158.084 57.9664 158.084 57.8075 158.164 57.728C159.117 56.7747 159.196 55.4242 159.753 54.312C159.991 53.8354 160.467 53.3587 160.547 52.8026C160.865 51.2932 162.056 50.3399 162.612 48.9894C162.692 48.8305 162.851 48.5922 163.01 48.5128C163.327 48.2744 163.407 47.9567 163.566 47.6389C164.042 46.765 164.281 45.6528 165.234 45.0173C165.552 44.779 165.87 43.9846 165.79 43.4285C165.631 43.5079 165.393 43.5079 165.234 43.5873C164.757 43.8257 164.281 44.1434 163.804 44.4612C162.771 45.0173 161.739 45.5734 160.706 46.1295C159.673 46.6856 158.64 47.2417 157.608 47.7978C156.416 48.4333 155.145 48.91 153.874 49.6249C152.841 50.181 151.729 50.3399 150.696 50.7371C150.458 50.8166 150.299 51.0549 150.061 51.1343C149.822 51.2932 149.504 51.4521 149.266 51.5315C148.472 51.6904 148.233 51.4521 148.392 50.6577C148.392 50.5782 148.392 50.4194 148.472 50.3399C149.187 49.7838 149.107 48.8305 149.584 48.1155C150.299 47.0034 151.093 45.9706 152.206 45.1762C152.444 45.0173 152.762 44.8584 153 44.6995C153.238 44.4612 153.397 44.064 153.794 44.2229C154.112 44.3818 154.43 44.6201 154.827 44.8584C154.43 45.6528 154.033 46.2884 153.715 46.9239C153.318 47.5594 152.603 47.9567 152.364 48.6716C153 48.4333 153.715 48.7511 154.271 48.195C154.509 47.9567 154.827 47.7978 155.145 47.7978C155.701 47.7183 156.019 47.4006 156.495 47.1622C157.051 46.765 157.687 46.5267 158.243 46.2089C158.879 45.8912 159.435 45.3351 160.229 45.3351C160.467 45.3351 160.706 44.9379 161.024 44.8584C161.58 44.5407 162.136 44.3023 162.692 43.9846C163.804 43.4285 164.837 42.7929 165.949 42.1574C166.028 42.0779 166.108 42.0779 166.187 41.9985C167.697 41.9191 168.173 40.5686 169.047 39.6947C169.524 39.218 169.921 38.5825 170.398 38.1059C170.636 37.8675 170.795 37.5498 171.033 37.3114C171.351 36.6759 171.669 36.0404 172.304 35.6431C172.622 35.4843 172.86 35.0871 173.019 34.7693C173.575 33.8954 174.449 33.2599 174.767 32.2271C174.846 32.0683 175.005 31.9888 175.164 31.9094C175.959 30.8766 176.753 29.8439 177.548 28.8111C178.024 28.1756 178.501 27.6195 178.977 27.0634C179.454 26.5073 179.851 25.8718 180.249 25.3157C180.328 25.2362 180.328 25.1568 180.407 25.1568C181.043 24.9979 181.202 24.3624 181.52 23.9652C181.996 23.4091 182.473 22.853 182.95 22.2174C183.585 21.5025 184.141 20.7081 184.777 19.9931C185.253 19.437 185.651 18.722 186.127 18.1659C186.922 17.4509 187.319 16.3387 188.352 15.7826C188.431 15.7032 188.511 15.5443 188.59 15.4649C188.828 15.0677 188.987 14.7499 189.384 14.5116C189.861 14.1938 190.099 13.6377 190.417 13.1611C190.735 12.7638 191.053 12.3666 191.37 11.9694C191.609 11.7311 191.768 11.4133 192.006 11.175C192.483 10.6984 193.039 10.3011 193.515 9.82449C193.595 9.74505 193.833 9.66561 193.833 9.58617C194.071 8.63286 194.945 8.3151 195.501 7.67956C195.978 7.04402 196.852 6.64681 197.646 6.40849C198.202 6.2496 198.679 6.56737 198.759 7.04402C198.838 7.44123 198.838 7.91789 198.759 8.3151C198.759 9.10952 198.6 9.18896 197.646 9.03007ZM159.435 59.158C159.514 59.158 159.594 59.2374 159.673 59.2374C160.07 58.9991 160.547 58.6813 160.626 58.1252C160.706 57.8869 160.785 57.6486 160.944 57.4103C161.818 56.5364 162.136 55.2653 162.692 54.1531C162.93 53.7559 163.169 53.2793 163.407 52.8026C163.804 51.9288 164.122 51.0549 164.44 50.181C164.519 49.9427 164.757 49.7838 164.757 49.5455C164.757 49.3866 164.678 49.2277 164.598 49.0688C164.44 49.1483 164.281 49.1483 164.201 49.3072C163.804 50.0222 163.407 50.8166 163.01 51.5315C162.533 52.326 162.056 53.1998 161.659 53.9943C161.421 54.4709 161.182 54.8681 161.024 55.3448C160.944 55.5037 160.944 55.6625 160.865 55.8214C160.388 56.6953 159.991 57.6486 159.514 58.5224C159.435 58.7608 159.435 58.9197 159.435 59.158Z" fill="#203485"/>
<path d="M195.501 44.779C195.581 44.8584 195.74 45.0173 195.899 45.1762C196.057 45.3351 196.137 45.4939 196.296 45.6528C196.137 46.05 196.057 46.4472 195.899 46.8445C196.455 47.2417 196.931 46.9239 197.328 46.8445C198.282 46.6856 199.235 46.4472 200.188 46.2089C200.506 46.1295 200.903 46.1295 201.221 45.9706C202.174 45.4939 203.207 45.4939 204.16 45.3351C204.955 45.1762 205.749 44.9378 206.544 44.6995C206.703 44.6201 206.862 44.5406 207.02 44.5406C208.609 44.5406 210.039 43.8257 211.628 43.5873C212.899 43.4284 214.091 43.1107 215.362 42.7929C215.521 42.7135 215.759 42.634 215.918 42.634C217.825 42.0779 219.731 41.8396 221.638 41.7602C221.876 41.7602 222.114 41.6807 222.273 41.6013C223.147 41.363 224.021 41.6807 224.895 41.8396C225.372 41.919 225.689 42.7135 225.61 43.1901C225.53 44.8584 224.339 45.7323 223.306 46.765C223.068 47.0033 222.75 47.1622 222.432 47.4005C222.035 47.7183 222.035 48.0361 222.591 48.195C222.829 48.2744 223.068 48.2744 223.306 48.2744C224.1 48.2744 224.974 48.3539 225.769 48.2744C226.722 48.195 227.675 48.0361 228.629 47.8772C229.9 47.6389 231.171 47.48 232.442 47.1622C233.872 46.765 235.302 46.765 236.732 46.3678C238.4 45.8911 240.148 45.6528 241.895 45.3351C243.325 45.0967 244.755 44.9378 246.106 44.6995C246.741 44.6201 247.377 44.3817 248.012 44.2229C249.045 43.9845 250.157 43.8257 251.27 43.5873C252.302 43.349 253.335 43.1901 254.368 42.9518C254.845 42.8723 255.242 42.7929 255.718 42.7135C257.466 42.3957 259.134 42.0779 260.882 41.8396C261.756 41.6807 262.709 41.6807 263.583 41.6013C264.219 41.5218 264.934 41.4424 265.569 41.363C266.205 41.2835 266.92 41.2041 267.555 41.1246C269.859 40.8863 272.163 40.9657 274.387 40.8863C275.182 40.8863 275.897 40.9657 276.612 40.9657C277.327 40.8863 278.121 40.8863 278.836 40.9657C279.63 41.0452 280.425 41.2041 281.219 41.4424C281.537 41.5218 281.775 41.7602 282.093 41.919C281.934 42.3957 281.696 42.4751 281.378 42.4751C280.663 42.3957 279.948 42.3163 279.154 42.2368C278.28 42.1574 277.485 42.0779 276.612 41.9985C275.42 41.9985 274.228 42.1574 273.037 41.9985C271.766 41.8396 270.574 42.0779 269.303 42.0779C268.509 42.0779 267.714 42.3163 266.92 42.3957C266.125 42.4751 265.331 42.5546 264.457 42.7135C263.106 42.8724 261.756 42.9518 260.485 43.2696C259.929 43.4284 259.293 43.4284 258.658 43.5079C256.91 43.8257 255.162 44.1434 253.415 44.3023C251.508 44.5406 249.681 45.1762 247.774 45.3351C246.265 45.4939 244.914 45.9706 243.484 46.2089C241.657 46.4472 239.83 46.9239 238.003 47.3211C237.367 47.48 236.732 47.4005 236.096 47.5594C234.825 47.7978 233.554 48.1155 232.283 48.3538C231.568 48.5127 230.853 48.5127 230.138 48.6716C229.105 48.8305 228.073 49.0688 226.96 49.3072C226.563 49.3866 226.166 49.466 225.769 49.466C224.974 49.5455 224.18 49.6249 223.385 49.6249C222.512 49.6249 221.638 49.5455 220.843 49.0688C219.89 48.5127 219.969 47.3211 220.923 46.6856C221.399 46.3678 221.876 45.8911 222.273 45.4145C222.75 44.8584 223.227 44.3023 223.703 43.7462C223.942 43.5079 223.942 43.1901 223.624 43.0312C223.306 42.8723 222.909 42.7135 222.591 42.7135C221.558 42.7929 220.446 42.9518 219.413 43.1107C218.937 43.1901 218.539 43.2696 218.063 43.349C216.553 43.6668 215.044 43.9051 213.614 44.2229C212.661 44.4612 211.707 44.6995 210.754 44.9378C210.357 45.0173 209.96 45.1762 209.483 45.1762C208.53 45.1762 207.656 45.7323 206.782 45.8117C205.511 45.8911 204.399 46.3678 203.207 46.5267C202.016 46.6856 200.824 47.1622 199.632 47.48C199.076 47.6389 198.52 47.7183 197.964 47.7978C197.011 47.9566 196.057 48.195 195.104 48.4333C194.469 48.5922 193.833 48.6716 193.277 48.5922C192.403 48.5127 191.926 48.9894 191.45 49.5455C190.655 50.4988 189.94 51.5315 189.225 52.4848C188.987 52.8026 188.828 53.1204 188.59 53.5176C188.272 53.9942 188.034 54.4709 187.716 54.8681C187.398 55.2653 186.683 55.1859 186.445 54.7092C186.127 53.9942 186.207 53.1998 186.604 52.6437C187.637 51.2932 188.59 49.8632 189.861 48.6716C190.814 47.7978 191.688 46.9239 192.483 45.8911C192.721 45.6528 192.959 45.4145 193.197 45.1762C193.515 44.9378 193.754 44.779 193.674 44.3817C193.674 44.3023 193.674 44.1434 193.754 44.064C194.151 43.5873 194.469 43.1901 194.866 42.7135C195.422 42.1574 195.899 41.6013 196.455 40.9657C196.693 40.7274 196.931 40.4891 196.931 40.0919C196.931 39.933 197.09 39.7741 197.17 39.6947C197.885 38.8208 198.679 37.9469 199.394 36.9936C200.744 35.3254 202.016 33.5776 203.366 31.8299C203.843 31.2738 204.319 30.7177 204.796 30.1616C205.273 29.6055 205.67 29.0494 206.067 28.5728C206.305 28.255 206.464 27.9373 206.703 27.6989C207.02 27.2223 207.179 26.7456 207.735 26.5073C207.974 26.4279 208.053 26.1101 208.212 25.8718C208.371 25.6334 208.45 25.3951 208.609 25.1568C208.848 24.839 209.165 24.6007 209.324 24.2035C209.404 23.8857 209.88 23.7268 210.119 23.4885C210.357 23.2502 210.516 23.0118 210.754 22.6941C210.834 22.5352 210.913 22.3763 211.072 22.2969C211.39 21.8997 211.628 21.423 211.946 21.0258C212.105 20.8669 212.264 20.708 212.422 20.5491C212.581 20.3903 212.74 20.1519 212.899 19.9931C213.455 19.437 213.773 18.722 214.329 18.1659C215.362 17.0537 216.395 15.9415 217.268 14.7499C217.825 14.0349 218.619 13.4788 219.334 12.7638C219.89 12.2077 220.367 11.6516 220.843 11.175C221.32 10.6983 221.956 10.6189 222.512 11.0161C222.829 11.2544 222.909 11.4928 222.67 11.8105C222.67 11.8105 222.67 11.89 222.591 11.89C221.638 12.7638 220.764 13.6377 219.89 14.5116C219.254 15.2265 218.619 15.9415 217.983 16.6565C217.904 16.7359 217.904 16.8948 217.825 16.9743C216.951 17.9276 215.997 18.8014 215.123 19.7547C214.647 20.3108 214.25 20.8669 213.773 21.423C213.137 22.2969 212.422 23.0913 211.787 23.9652C210.993 24.9979 210.119 26.1101 209.324 27.1428C208.689 27.8578 208.053 28.5728 207.418 29.2878C207.179 29.5261 207.1 29.7644 206.862 30.0822C206.464 30.6383 206.067 31.1944 205.59 31.7505C204.717 32.8627 203.763 33.8954 202.889 35.0076C202.413 35.5637 201.857 36.1992 201.38 36.7553C200.824 37.4703 200.347 38.1058 199.791 38.8208C199.553 39.1386 199.394 39.4563 199.076 39.6152C198.6 39.933 198.282 40.4891 197.964 40.9657C197.328 41.8396 196.772 42.7135 195.899 43.4284C195.899 43.7462 195.819 44.3023 195.501 44.779Z" fill="#203485"/>
<path d="M117.251 56.2981C117.807 56.2981 118.045 56.4569 118.204 56.9336C118.363 57.3308 118.284 57.6486 117.887 57.728C117.569 57.8075 117.33 57.9663 117.172 58.2841C116.933 58.6813 116.615 58.6813 116.218 58.443C115.662 58.1252 115.583 58.0458 115.742 57.4897C115.821 56.7747 116.377 56.2981 117.251 56.2981Z" fill="#203485"/>
</svg>
